<svg width="574" height="100" viewBox="0 0 574 100" fill="none" xmlns="http://www.w3.org/2000/svg">
<path d="M57.4844 24.4844C55.5781 27.5469 52.4531 36 48.1094 49.8438C49.1406 49.9062 50.6719 49.9375 52.7031 49.9375C58.9531 49.9375 64.2188 47.7969 68.5 43.5156C72.8125 39.2344 74.9688 33.6719 74.9688 26.8281C74.9688 16.8281 68.9531 11.8281 56.9219 11.8281C52.1719 11.8281 47.5781 12.1719 43.1406 12.8594C38.7344 13.5469 35.25 14.2969 32.6875 15.1094C30.125 15.9219 27.7656 16.6719 25.6094 17.3594C23.4531 18.0469 22.0312 18.3906 21.3438 18.3906C19.7812 18.3906 19 17.8281 19 16.7031C19 15.5781 20.0625 14.4375 22.1875 13.2812C24.3438 12.0938 26.7969 10.9531 29.5469 9.85938C32.2969 8.73438 35.7031 7.5625 39.7656 6.34375C48.9844 3.53125 58.9688 2.125 69.7188 2.125C83.9062 2.125 93.5625 5.28125 98.6875 11.5938C101.469 15 102.859 19.1094 102.859 23.9219C102.859 33.0469 99.0625 40.5781 91.4688 46.5156C85 51.5781 76.5938 54.7969 66.25 56.1719C63.2188 56.5781 59.75 56.7812 55.8438 56.7812C51.9688 56.7812 48.75 56.5156 46.1875 55.9844C44.875 60.2031 43.8438 63.4219 43.0938 65.6406C42.375 67.8594 41.5625 69.6406 40.6562 70.9844C39.75 72.3281 38.7812 73.3906 37.75 74.1719C36.75 74.9531 35.4688 75.5469 33.9062 75.9531C31.4375 76.6094 28.1406 76.9375 24.0156 76.9375C19.9219 76.9375 16.0312 76.4844 12.3438 75.5781C8.65625 74.6719 5.73438 73.5625 3.57812 72.25C1.39062 70.9375 0.296875 69.6562 0.296875 68.4062C0.296875 67.6875 0.609375 67.1094 1.23438 66.6719C1.85938 66.2344 2.57812 66.0156 3.39062 66.0156C6.26562 66.0156 8.39062 65.5625 9.76562 64.6562C11.1719 63.7188 12.5156 62 13.7969 59.5C15.1094 57 16.4062 54.0938 17.6875 50.7812C19 47.4375 20.2188 44.3438 21.3438 41.5C22.4688 38.625 23.75 35.7031 25.1875 32.7344C28.3438 26.2344 32.0781 21.9688 36.3906 19.9375C38.4844 18.9375 41.2188 18.1719 44.5938 17.6406C47.9688 17.0781 50.6094 16.7969 52.5156 16.7969C54.4531 16.7969 55.7031 16.8281 56.2656 16.8906C56.8594 16.9219 57.4531 17.0156 58.0469 17.1719C59.2344 17.4844 59.8281 18.1406 59.8281 19.1406C59.8281 19.8281 59.6875 20.4688 59.4062 21.0625C59.1562 21.625 58.5156 22.7656 57.4844 24.4844ZM117.906 27.7656L140.125 27.25C140.938 27.25 141.547 27.5 141.953 28C142.359 28.4688 142.562 28.9062 142.562 29.3125C142.562 29.7188 142.453 30.3906 142.234 31.3281C142.016 32.2656 141.734 33.4062 141.391 34.75C141.047 36.0625 140.828 36.9062 140.734 37.2812C143.172 34.375 146.219 31.8125 149.875 29.5938C153.531 27.375 156.75 26.2656 159.531 26.2656C165.438 26.2656 168.391 27.5469 168.391 30.1094C168.391 32.6406 167.594 35.6875 166 39.25C164.406 42.7812 162.906 45.1094 161.5 46.2344C160.812 46.7344 159.969 46.9844 158.969 46.9844C158 46.9844 157.094 46.6719 156.25 46.0469C152.469 43.2344 148.344 41.8281 143.875 41.8281C142.156 41.8281 140.656 41.9531 139.375 42.2031C138.156 46.3906 136.219 52.5469 133.562 60.6719C130.906 68.7656 129.438 73.2812 129.156 74.2188C128.688 75.6875 127.812 76.4219 126.531 76.4219C122 76.4219 117.141 76.6562 111.953 77.125C106.766 77.625 103.781 77.875 103 77.875C102.25 77.875 101.656 77.6562 101.219 77.2188C100.812 76.8125 100.609 76.3281 100.609 75.7656C100.609 75.1719 101.266 73.0781 102.578 69.4844C103.922 65.8594 105.391 61.9688 106.984 57.8125C108.609 53.6562 110.078 49.0938 111.391 44.125C112.734 39.1562 113.406 35.0781 113.406 31.8906L113.359 30.1094C113.359 28.5469 114.875 27.7656 117.906 27.7656ZM175.703 72.8594C169.828 69.3281 166.891 63.9688 166.891 56.7812C166.891 53.0312 167.656 49.5156 169.188 46.2344C170.75 42.9219 172.875 40.0625 175.562 37.6562C178.281 35.25 181.438 33.1875 185.031 31.4688C192.219 28 200.453 26.2656 209.734 26.2656C227.984 26.2656 237.844 32.0469 239.312 43.6094C241.5 44.3281 243.75 44.6875 246.062 44.6875C248.406 44.6875 250.359 44.5156 251.922 44.1719C253.484 43.8281 254.953 43.3125 256.328 42.625C257.734 41.9375 258.734 41.5938 259.328 41.5938C260.516 41.5938 261.109 42.1719 261.109 43.3281C261.109 44.4844 260.188 45.6875 258.344 46.9375C254.875 49.3125 250.281 50.5 244.562 50.5C242.406 50.5 240.656 50.3906 239.312 50.1719C238.312 58.0469 234.25 64.5938 227.125 69.8125C223.719 72.3125 219.531 74.2812 214.562 75.7188C209.625 77.1562 204.5 77.875 199.188 77.875C193.906 77.875 189.375 77.4531 185.594 76.6094C181.812 75.7969 178.516 74.5469 175.703 72.8594ZM192.719 60.9062C192.719 66.6875 194.828 69.5781 199.047 69.5781C201.734 69.5781 204.234 68.1094 206.547 65.1719C208.891 62.2344 210.703 58.5938 211.984 54.25C213.297 49.9062 213.953 45.4844 213.953 40.9844C213.953 36.4531 212.375 34.1875 209.219 34.1875C206.469 34.1875 203.797 35.4844 201.203 38.0781C198.641 40.6719 196.578 44.0469 195.016 48.2031C193.484 52.3281 192.719 56.5625 192.719 60.9062ZM299.031 62.6406C300.438 62.6406 301.141 63.2812 301.141 64.5625C301.141 66.3125 297.172 68.5 289.234 71.125C284.297 72.7812 279.125 74.0625 273.719 74.9688C273 77.5938 272.031 80.7656 270.812 84.4844C269 89.9531 266.297 93.8906 262.703 96.2969C259.109 98.7031 254.188 99.9062 247.938 99.9062C241.719 99.9062 236.75 99.125 233.031 97.5625C230.625 96.5625 229.422 95.3438 229.422 93.9062C229.422 92.5 230.234 91.7969 231.859 91.7969L235.047 91.9844C237.422 91.9844 239.766 89.5156 242.078 84.5781C243.453 81.5781 245.266 76.6094 247.516 69.6719C252.016 55.6719 255.609 42.5156 258.297 30.2031C258.484 29.2656 258.781 28.6094 259.188 28.2344C259.625 27.8281 260.5 27.625 261.812 27.625L284.594 27.1094C285.406 27.1094 286.062 27.3125 286.562 27.7188C287.094 28.125 287.359 28.6719 287.359 29.3594C287.359 30.0156 287.031 31.1719 286.375 32.8281C285.719 34.4844 285.047 36.2188 284.359 38.0312C283.703 39.8438 283.047 41.75 282.391 43.75C281.766 45.75 281.25 47.375 280.844 48.625C280.438 49.8438 279.922 51.5938 279.297 53.875C278.672 56.1562 278.266 57.6562 278.078 58.375C277.891 59.0625 277.453 60.7188 276.766 63.3438C276.109 65.9375 275.734 67.4062 275.641 67.75C282.828 67.3125 289.062 66.0938 294.344 64.0938C296.875 63.125 298.438 62.6406 299.031 62.6406ZM292.656 9.90625C292.656 13.25 290.797 16.1719 287.078 18.6719C283.391 21.1406 279.484 22.375 275.359 22.375C271.266 22.375 268.078 21.5469 265.797 19.8906C263.516 18.2031 262.375 16.1562 262.375 13.75C262.375 11.3438 263.25 9.15625 265 7.1875C266.75 5.21875 269.016 3.67188 271.797 2.54688C274.609 1.42188 277.656 0.859375 280.938 0.859375C284.219 0.859375 286.984 1.73438 289.234 3.48438C291.516 5.20313 292.656 7.34375 292.656 9.90625ZM371.594 62.6406C372.688 62.6406 373.234 63.1562 373.234 64.1875C373.234 65.1875 372.484 66.125 370.984 67C369.516 67.8438 367.688 68.7656 365.5 69.7656C363.312 70.7344 360.297 71.8906 356.453 73.2344C347.609 76.3281 337.625 77.875 326.5 77.875C305.375 77.875 294.812 71.375 294.812 58.375C294.812 52.0312 296.812 46.4062 300.812 41.5C304.844 36.5625 310.234 32.7969 316.984 30.2031C323.734 27.5781 331.094 26.2656 339.062 26.2656C347.031 26.2656 352.859 27.5 356.547 29.9688C360.266 32.4375 362.125 35.8281 362.125 40.1406C362.125 44.5781 360.344 48.2031 356.781 51.0156C353.25 53.8281 348.547 55.9219 342.672 57.2969C336.766 58.6719 330 59.6406 322.375 60.2031C322.875 65.0469 326.344 68.0625 332.781 69.25C334.438 69.5312 336.188 69.6719 338.031 69.6719C345.344 69.6719 355.891 67.4688 369.672 63.0625C370.516 62.7812 371.156 62.6406 371.594 62.6406ZM322.422 55.0469C327.859 53.5469 332.156 51.25 335.312 48.1562C338.469 45.0625 340.047 41.3281 340.047 36.9531C340.047 35.7969 339.672 34.875 338.922 34.1875C338.172 33.5 337.031 33.1562 335.5 33.1562C334 33.1562 332.422 33.8125 330.766 35.125C329.141 36.4375 327.766 38.1562 326.641 40.2812C324.266 44.6875 322.859 49.6094 322.422 55.0469ZM396.625 45.3906C395.188 49.2344 394.469 52.7656 394.469 55.9844C394.469 59.2031 394.797 61.6094 395.453 63.2031C396.109 64.7656 397.094 65.9688 398.406 66.8125C402.875 69.625 411.719 69.7812 424.938 67.2812C431.219 66.0938 435.781 65.0312 438.625 64.0938C441.5 63.125 443.188 62.6406 443.688 62.6406C444.781 62.6406 445.328 63.1719 445.328 64.2344C445.328 65.2969 444.5 66.375 442.844 67.4688C438.469 70.3125 432.297 72.7656 424.328 74.8281C416.359 76.8594 407.453 77.875 397.609 77.875C387.797 77.875 380.344 76.125 375.25 72.625C370.156 69.125 367.609 64.2812 367.609 58.0938C367.609 54.25 368.406 50.625 370 47.2188C371.625 43.8125 373.828 40.8594 376.609 38.3594C379.422 35.8281 382.688 33.6406 386.406 31.7969C393.844 28.1094 402.281 26.2656 411.719 26.2656C422.719 26.2656 430.438 27.5312 434.875 30.0625C435.375 30.4688 435.625 31.2344 435.625 32.3594C435.625 33.4531 435.141 35.2812 434.172 37.8438C433.203 40.4062 431.922 42.7812 430.328 44.9688C428.766 47.1562 427.328 48.25 426.016 48.25C424.703 48.25 423.656 47.5469 422.875 46.1406C422.094 44.7344 421.438 43.5938 420.906 42.7188C420.375 41.8125 419.641 40.75 418.703 39.5312C417.766 38.3125 416.875 37.3906 416.031 36.7656C415.219 36.1406 414.219 35.5938 413.031 35.125C411.844 34.6562 410.391 34.4219 408.672 34.4219C406.984 34.4219 405.281 34.9375 403.562 35.9688C401.875 36.9688 400.484 38.2812 399.391 39.9062C398.297 41.5 397.375 43.3281 396.625 45.3906ZM482.875 28.2812L495.203 26.6875C497.516 26.6875 498.672 27.5938 498.672 29.4062C498.672 31.2188 497.578 32.3594 495.391 32.8281C493.203 33.2656 488.266 33.8594 480.578 34.6094C479.516 37.3906 477.922 41.25 475.797 46.1875C471.453 56.3125 469.281 62.3906 469.281 64.4219C469.281 66.6406 470.656 67.75 473.406 67.75C482.281 67.75 490.25 66.2656 497.312 63.2969C498.344 62.8594 499.156 62.6406 499.75 62.6406C500.906 62.6406 501.484 63.1562 501.484 64.1875C501.484 65.2188 500.734 66.2344 499.234 67.2344C494.641 70.2656 487.719 72.7969 478.469 74.8281C469.219 76.8594 460.688 77.875 452.875 77.875C448.438 77.875 445.047 77.1875 442.703 75.8125C440.359 74.4062 439.188 72.4844 439.188 70.0469C439.188 67.5781 440.812 62.9688 444.062 56.2188C447.719 48.6562 450.344 42.0156 451.938 36.2969C450 36.3906 448.656 36.4375 447.906 36.4375C446.062 36.4375 445.141 35.6875 445.141 34.1875C445.141 33.0938 445.438 32.3594 446.031 31.9844C446.625 31.6094 447.234 31.3438 447.859 31.1875C448.516 31.0312 449.062 30.9375 449.5 30.9062C449.969 30.8438 450.609 30.7812 451.422 30.7188C452.234 30.6562 452.828 30.6094 453.203 30.5781C453.609 28.2031 453.812 25.9688 453.812 23.875L453.766 22.0938C453.766 20.6875 455.547 19.7344 459.109 19.2344C460.297 19.0781 464.031 18.2969 470.312 16.8906C476.594 15.4844 480.438 14.7812 481.844 14.7812C484.094 14.7812 485.219 15.5625 485.219 17.125C485.219 19.8125 484.438 23.5312 482.875 28.2812ZM526.469 77.8281C525.688 77.8594 524.531 77.875 523 77.875C515.812 77.875 509.031 77.2031 502.656 75.8594C496.312 74.5156 492.562 72.9531 491.406 71.1719C491.031 70.6094 490.844 69.9062 490.844 69.0625C490.844 68.2188 491.844 66.875 493.844 65.0312C495.844 63.1562 497.219 62.2188 497.969 62.2188C498.719 62.2188 499.484 62.5 500.266 63.0625C501.078 63.5938 501.969 64.25 502.938 65.0312C503.906 65.8125 504.984 66.5938 506.172 67.375C509.016 69.25 512.438 70.1875 516.438 70.1875C518.031 70.1875 519.312 69.7812 520.281 68.9688C521.281 68.1562 521.781 67.1406 521.781 65.9219C521.781 64.6719 521.359 63.5938 520.516 62.6875C519.703 61.7812 518.625 61 517.281 60.3438C515.969 59.6562 514.516 58.9844 512.922 58.3281C511.328 57.6406 509.719 56.9062 508.094 56.125C506.5 55.3125 505.031 54.4375 503.688 53.5C500.719 51.4062 499.234 48.8125 499.234 45.7188C499.234 42.5938 500.172 39.8906 502.047 37.6094C503.953 35.3281 506.344 33.5 509.219 32.125C512.094 30.75 515.344 29.5938 518.969 28.6562C525.344 27.0625 531.359 26.2656 537.016 26.2656C542.703 26.2656 547.984 26.5625 552.859 27.1562C557.766 27.7188 561.141 28.5625 562.984 29.6875C563.484 29.9688 563.734 30.7188 563.734 31.9375C563.734 33.125 563.312 34.8438 562.469 37.0938C561.625 39.3125 560.547 41.375 559.234 43.2812C557.953 45.1562 556.797 46.0938 555.766 46.0938C555.359 46.0938 555.016 45.9219 554.734 45.5781C551.766 42.0156 548.875 39.2812 546.062 37.375C543.281 35.4375 540.25 34.4688 536.969 34.4688C534.469 34.4688 532.672 34.9844 531.578 36.0156C530.516 37.0156 529.984 38.0625 529.984 39.1562C529.984 40.25 530.578 41.2969 531.766 42.2969C532.984 43.2969 534.484 44.2031 536.266 45.0156C538.078 45.8281 540.031 46.7812 542.125 47.875C544.25 48.9375 546.203 50.0312 547.984 51.1562C549.797 52.25 551.297 53.6406 552.484 55.3281C553.703 56.9844 554.312 59.0781 554.312 61.6094C554.312 64.1406 553.391 66.6094 551.547 69.0156C559.297 67.4531 565.359 65.5312 569.734 63.25C570.484 62.8438 571.125 62.6406 571.656 62.6406C572.844 62.6406 573.438 63.2344 573.438 64.4219C573.438 65.4219 572.828 66.3438 571.609 67.1875C570.391 68 568.375 69 565.562 70.1875C562.75 71.3438 559.406 72.5156 555.531 73.7031C546.5 76.4531 536.812 77.8281 526.469 77.8281Z" fill="#253976"/>
</svg>
