<svg width="387" height="75" viewBox="0 0 387 75" fill="none" xmlns="http://www.w3.org/2000/svg">
<path d="M46.75 32.5156L46.6562 33.0781L46.0938 33.2656C43.0938 34.5781 40.4688 36.125 38.2188 37.9062C35.9688 39.6875 34.0156 41.7969 32.3594 44.2344L31.8906 44.7031C30.7344 45.1719 29.5312 45.7969 28.2812 46.5781C27.0312 47.3594 25.7812 48.2344 24.5312 49.2031C23.3125 50.1719 22.1406 51.2188 21.0156 52.3438C19.9219 53.4375 18.9375 54.5625 18.0625 55.7188C18 55.9688 17.9844 56.2188 18.0156 56.4688C18.0469 56.6875 18.0625 56.9219 18.0625 57.1719C18.0625 58.8281 18.1875 60.4531 18.4375 62.0469C18.6875 63.6094 19.1094 65.1875 19.7031 66.7812L19.8906 67.25L19.7031 67.625C19.6719 67.6875 19.5 67.9688 19.1875 68.4688C18.875 68.9375 18.3594 69.4531 17.6406 70.0156C16.9219 70.5781 15.9375 71.0938 14.6875 71.5625C13.4688 72.0312 11.9375 72.2656 10.0938 72.2656C8.25 72.2656 6.71875 72.0156 5.5 71.5156C4.3125 71.0156 3.35938 70.4688 2.64062 69.875C1.95312 69.2812 1.46875 68.7344 1.1875 68.2344C0.90625 67.7031 0.765625 67.4062 0.765625 67.3438L0.578125 66.875L0.765625 66.5C1.48438 64.75 2.01562 62.9688 2.35938 61.1562C2.70312 59.3438 2.875 57.4688 2.875 55.5312C2.875 54.2188 2.79688 52.9062 2.64062 51.5938C2.51562 50.25 2.28125 48.875 1.9375 47.4688V46.9062C2.3125 45.3438 2.60938 43.8125 2.82812 42.3125C3.07812 40.8125 3.20312 39.3281 3.20312 37.8594C3.20312 36.1719 3.0625 34.5469 2.78125 32.9844C2.5 31.3906 2.125 29.7969 1.65625 28.2031L1.5625 27.7812L1.75 27.4062C3.09375 23.9688 3.76562 20.5469 3.76562 17.1406C3.76562 15.7969 3.65625 14.4531 3.4375 13.1094C3.25 11.7656 2.9375 10.3906 2.5 8.98438L2.3125 8.42188L2.6875 7.90625C2.71875 7.875 2.84375 7.75 3.0625 7.53125C3.28125 7.28125 3.60938 7 4.04688 6.6875C4.48438 6.34375 5.04688 6.01562 5.73438 5.70312C6.42188 5.35938 7.23438 5.07812 8.17188 4.85938C8.76562 3.92188 9.4375 3.1875 10.1875 2.65625C10.9375 2.09375 11.6406 1.67188 12.2969 1.39062C12.9844 1.10938 13.5625 0.921875 14.0312 0.828125C14.5312 0.734375 14.8125 0.671875 14.875 0.640625H15.3906L15.7656 0.921875C16.7656 1.82812 17.7656 2.60938 18.7656 3.26562C19.7656 3.89062 20.7969 4.45312 21.8594 4.95312C22.9531 5.42188 24.1094 5.82812 25.3281 6.17188C26.5469 6.51562 27.875 6.8125 29.3125 7.0625C29.4688 7.0625 29.625 7.07812 29.7812 7.10938C29.9375 7.14062 30.0938 7.15625 30.25 7.15625H30.625L31.0469 7.4375C32.2969 8.5 33.4844 9.42188 34.6094 10.2031C35.7656 10.9531 36.9531 11.5938 38.1719 12.125C39.3906 12.625 40.6719 13.0156 42.0156 13.2969C43.3594 13.5781 44.8438 13.7656 46.4688 13.8594H47.0781L47.4531 14.375C47.4531 14.4375 47.5 14.5781 47.5938 14.7969C47.7188 15.0156 47.8438 15.3281 47.9688 15.7344C48.0938 16.1094 48.2031 16.5781 48.2969 17.1406C48.4219 17.6719 48.4844 18.2812 48.4844 18.9688C48.4844 19.5938 48.4219 20.2656 48.2969 20.9844C48.2031 21.7031 48.0156 22.4688 47.7344 23.2812C47.2656 24.5938 46.7188 25.6875 46.0938 26.5625C46.4375 27.375 46.6562 28.1562 46.75 28.9062C46.875 29.625 46.9375 30.25 46.9375 30.7812C46.9375 31.25 46.9062 31.6406 46.8438 31.9531C46.7812 32.2656 46.75 32.4531 46.75 32.5156ZM25.5625 23.9375L24.9531 23.6562C23.7656 23 22.6562 22.375 21.625 21.7812C20.5938 21.1875 19.5938 20.6719 18.625 20.2344C18.625 21.3906 18.7188 22.5312 18.9062 23.6562C19.0938 24.75 19.3594 25.875 19.7031 27.0312V27.6875C18.9219 30.3438 18.4375 32.9375 18.25 35.4688C18.7812 34.9375 19.2812 34.4062 19.75 33.875C20.25 33.3125 20.5469 32.8594 20.6406 32.5156L20.9219 32.1406L21.3438 32.0469C25.4688 30.4844 29.0156 28.2031 31.9844 25.2031C30.9844 24.8594 29.9531 24.5938 28.8906 24.4062C27.8594 24.2188 26.75 24.0625 25.5625 23.9375ZM96.0625 33.0781L95.9688 33.6406L95.4062 33.9219C93.375 34.7969 91.5156 35.7812 89.8281 36.875C88.1719 37.9375 86.6719 39.1719 85.3281 40.5781C85.8594 42.0156 86.5469 43.3125 87.3906 44.4688C88.2344 45.5938 89.3438 46.7969 90.7188 48.0781L91 48.5469C91.5312 51.2344 92.4062 53.6719 93.625 55.8594C94.875 58.0469 96.5625 60.0469 98.6875 61.8594L99.0625 62.0938V62.5625C99.0625 62.625 99.0312 62.9219 98.9688 63.4531C98.9375 63.9844 98.75 64.6406 98.4062 65.4219C98.0938 66.2031 97.5625 67.0469 96.8125 67.9531C96.0625 68.8594 94.9844 69.7188 93.5781 70.5312C92.4844 71.1562 91.4531 71.5781 90.4844 71.7969C89.5469 72.0469 88.7188 72.1719 88 72.1719C87.3438 72.1719 86.7656 72.1094 86.2656 71.9844C85.7656 71.8594 85.3438 71.7188 85 71.5625C84.6562 71.4062 84.3906 71.2656 84.2031 71.1406C84.0156 71.0156 83.9062 70.9375 83.875 70.9062L83.5938 70.7188L83.5 70.25C83.3438 69.0312 83.0938 67.8906 82.75 66.8281C82.4375 65.7656 82.0312 64.7344 81.5312 63.7344C81.0312 62.7344 80.4375 61.75 79.75 60.7812C79.0938 59.8125 78.3594 58.8281 77.5469 57.8281C77.2344 57.5156 77.0156 57.3281 76.8906 57.2656L76.6094 56.9844V56.6094C76.3594 55.1406 76.0625 53.8438 75.7188 52.7188C75.4062 51.5625 74.9688 50.4844 74.4062 49.4844C73.0938 50.4531 71.8281 51.5312 70.6094 52.7188C69.4219 53.9062 68.3438 55.1406 67.375 56.4219C67.3125 56.6719 67.2969 56.9062 67.3281 57.125C67.3594 57.3438 67.375 57.5781 67.375 57.8281C67.375 59.4844 67.5 61.1094 67.75 62.7031C68 64.2656 68.4219 65.8438 69.0156 67.4375L69.2031 67.8125L69.0156 68.3281C68.9844 68.3906 68.8125 68.6719 68.5 69.1719C68.1875 69.6406 67.6719 70.1562 66.9531 70.7188C66.2344 71.2812 65.25 71.7812 64 72.2188C62.7812 72.6875 61.25 72.9219 59.4062 72.9219C57.5625 72.9219 56.0312 72.6719 54.8125 72.1719C53.625 71.7031 52.6719 71.1719 51.9531 70.5781C51.2656 69.9531 50.7812 69.3906 50.5 68.8906C50.2188 68.3906 50.0781 68.1094 50.0781 68.0469L49.8906 67.5312L50.0781 67.1562C50.7969 65.4062 51.3281 63.6406 51.6719 61.8594C52.0156 60.0469 52.1875 58.1719 52.1875 56.2344C52.1875 54.9219 52.1094 53.6094 51.9531 52.2969C51.8281 50.9531 51.5938 49.5781 51.25 48.1719V47.5625C51.625 46.0312 51.9219 44.5156 52.1406 43.0156C52.3906 41.4844 52.5156 40 52.5156 38.5625C52.5156 36.875 52.375 35.2344 52.0938 33.6406C51.8125 32.0469 51.4375 30.4531 50.9688 28.8594L50.875 28.4844L51.0625 28.1094C52.4062 24.6719 53.0781 21.2344 53.0781 17.7969C53.0781 16.3906 52.9688 15.0156 52.75 13.6719C52.5625 12.3281 52.25 10.9531 51.8125 9.54688L51.625 8.98438L52 8.51562C52.0312 8.48438 52.1562 8.35938 52.375 8.14062C52.5938 7.89062 52.9219 7.60938 53.3594 7.29688C53.7969 6.95312 54.3594 6.625 55.0469 6.3125C55.7344 5.96875 56.5469 5.70312 57.4844 5.51562C58.0781 4.57812 58.75 3.84375 59.5 3.3125C60.25 2.75 60.9531 2.32812 61.6094 2.04688C62.2969 1.76562 62.875 1.57812 63.3438 1.48438C63.8438 1.39062 64.125 1.32813 64.1875 1.29688H64.7031L65.0781 1.57812C65.9844 2.39062 66.9844 3.17188 68.0781 3.92188C69.1719 4.67188 70.3281 5.32812 71.5469 5.89062C72.7656 6.45312 74.0469 6.90625 75.3906 7.25C76.7344 7.5625 78.125 7.71875 79.5625 7.71875L80.3594 8.04688C81.6094 9.14062 82.7969 10.0781 83.9219 10.8594C85.0781 11.6094 86.2656 12.2344 87.4844 12.7344C88.7031 13.2344 89.9844 13.625 91.3281 13.9062C92.6719 14.1875 94.1562 14.375 95.7812 14.4688L96.3906 14.5625L96.7656 15.0312C96.7656 15.0938 96.8125 15.2344 96.9062 15.4531C97.0312 15.6719 97.1562 15.9844 97.2812 16.3906C97.4062 16.7656 97.5156 17.2344 97.6094 17.7969C97.7344 18.3281 97.7969 18.9375 97.7969 19.625C97.7969 20.25 97.7344 20.9219 97.6094 21.6406C97.5156 22.3594 97.3281 23.125 97.0469 23.9375C96.6094 25.2188 96.0625 26.2812 95.4062 27.125C95.75 27.9375 95.9688 28.7031 96.0625 29.4219C96.1875 30.1094 96.25 30.7188 96.25 31.25C96.25 31.7812 96.2188 32.2031 96.1562 32.5156C96.0938 32.8281 96.0625 33.0156 96.0625 33.0781ZM74.875 24.5469L74.2656 24.3594C73.0781 23.6719 71.9688 23.0312 70.9375 22.4375C69.9062 21.8125 68.9062 21.2656 67.9375 20.7969C67.9375 21.9531 68.0312 23.1094 68.2188 24.2656C68.4062 25.3906 68.6719 26.5312 69.0156 27.6875V28.3906C68.2344 31.0156 67.75 33.5781 67.5625 36.0781C68.0625 35.5781 68.5156 35.0781 68.9219 34.5781C69.3594 34.0781 69.7031 33.6094 69.9531 33.1719L70.6562 32.6094C72.7188 31.8281 74.6406 30.8906 76.4219 29.7969C78.2344 28.6719 79.8906 27.3281 81.3906 25.7656C79.4531 25.1406 77.2812 24.7344 74.875 24.5469ZM155.734 63.3125L155.547 63.7812C155.547 63.8125 155.391 64.125 155.078 64.7188C154.797 65.3125 154.25 65.9688 153.438 66.6875C152.656 67.375 151.562 68.0156 150.156 68.6094C148.781 69.1719 147.016 69.4531 144.859 69.4531C143.453 69.4531 142.266 69.2969 141.297 68.9844C140.328 68.6406 139.5 68.2188 138.812 67.7188C137.375 67.9375 135.953 68.25 134.547 68.6562C133.172 69.0312 131.812 69.5312 130.469 70.1562L130.188 70.3438L129.906 70.25C129.125 70.25 128.375 70.2188 127.656 70.1562C126.969 70.0938 126.25 70.0625 125.5 70.0625C122.969 70.0625 120.359 70.3281 117.672 70.8594C115.016 71.3906 112.625 72.2031 110.5 73.2969L110.031 73.4844L109.656 73.3906C109.75 73.4219 109.516 73.3281 108.953 73.1094C108.391 72.8906 107.734 72.4844 106.984 71.8906C106.234 71.3281 105.5 70.5469 104.781 69.5469C104.094 68.5156 103.672 67.2031 103.516 65.6094C102.672 65.1406 101.969 64.6406 101.406 64.1094C100.875 63.5469 100.438 63.0312 100.094 62.5625C99.7812 62.0938 99.5625 61.7031 99.4375 61.3906C99.3125 61.0469 99.25 60.8594 99.25 60.8281L99.1562 60.3594L99.3438 59.9375C99.9375 58.875 100.453 57.875 100.891 56.9375C101.328 56 101.688 55.0938 101.969 54.2188C102.25 53.3125 102.453 52.4062 102.578 51.5C102.734 50.5625 102.812 49.5469 102.812 48.4531C102.812 47.1719 102.719 45.7344 102.531 44.1406L102.625 43.5312C103.438 41.5625 104.031 39.7344 104.406 38.0469C104.812 36.3594 105.016 34.6719 105.016 32.9844C105.016 32.0156 104.953 31.0312 104.828 30.0312C104.703 29 104.547 27.9375 104.359 26.8438L104.266 26.375L104.453 26.0938C105.172 24.6875 105.766 23.4062 106.234 22.25C106.703 21.0625 107.062 19.875 107.312 18.6875C106.844 18.0625 106.438 17.2344 106.094 16.2031C105.781 15.1406 105.625 13.8594 105.625 12.3594C105.625 10.3594 105.875 8.73438 106.375 7.48438C106.906 6.20312 107.484 5.20312 108.109 4.48438C108.766 3.76562 109.359 3.28125 109.891 3.03125C110.422 2.78125 110.719 2.65625 110.781 2.65625L111.25 2.46875L111.672 2.65625C113.297 3.46875 114.938 4.0625 116.594 4.4375C118.25 4.78125 120 4.95312 121.844 4.95312C122.594 4.95312 123.469 4.95312 124.469 4.95312C125.469 4.92188 126.375 4.76562 127.188 4.48438L127.609 4.39062L127.984 4.57812C129.672 5.35938 131.234 5.95312 132.672 6.35938C134.109 6.76562 135.547 7 136.984 7.0625C137.766 6.71875 138.641 6.40625 139.609 6.125C140.578 5.84375 141.688 5.70312 142.938 5.70312C144.188 5.70312 145.297 5.85938 146.266 6.17188C147.234 6.45312 148.047 6.78125 148.703 7.15625C149.391 7.53125 149.906 7.875 150.25 8.1875C150.625 8.5 150.844 8.67188 150.906 8.70312L151.375 9.17188L151.188 9.73438C150.844 11.1094 150.578 12.4219 150.391 13.6719C150.234 14.8906 150.156 16.0781 150.156 17.2344C150.156 18.7969 150.312 20.3125 150.625 21.7812C150.969 23.2188 151.453 24.7188 152.078 26.2812L152.266 26.5625L152.172 26.9375C151.984 28.125 151.828 29.2656 151.703 30.3594C151.578 31.4219 151.516 32.4844 151.516 33.5469C151.516 35.5781 151.719 37.5312 152.125 39.4062C152.562 41.25 153.219 43.1094 154.094 44.9844L154.281 45.2656L154.094 45.7344C153.75 47.1094 153.484 48.3906 153.297 49.5781C153.109 50.7344 153.016 51.8594 153.016 52.9531C153.016 54.6094 153.219 56.2344 153.625 57.8281C154.031 59.3906 154.672 61.0938 155.547 62.9375L155.734 63.3125ZM122.406 28.2031L122.312 28.4844C121.406 30.6094 120.75 32.5469 120.344 34.2969C119.938 36.0156 119.734 37.7188 119.734 39.4062C119.734 40.4062 119.797 41.4062 119.922 42.4062C120.047 43.4062 120.234 44.4531 120.484 45.5469L120.578 45.9219L120.391 46.3438C119.484 48.1562 118.781 49.7656 118.281 51.1719C117.812 52.5469 117.531 53.9688 117.438 55.4375C118.188 55.3438 119 55.2344 119.875 55.1094C120.75 54.9844 121.594 54.8438 122.406 54.6875C123.25 54.5 124.031 54.2812 124.75 54.0312C125.5 53.7812 126.125 53.4844 126.625 53.1406L127 52.9531L127.375 53.0469C128.469 53.2969 129.531 53.4688 130.562 53.5625C131.625 53.6562 132.656 53.7031 133.656 53.7031C135.031 53.7031 136.406 53.6094 137.781 53.4219C137.625 52.5156 137.422 51.5781 137.172 50.6094C136.953 49.6094 136.672 48.5625 136.328 47.4688L136.234 46.9062C136.609 44.8125 136.797 42.7656 136.797 40.7656C136.797 38.7344 136.578 36.7969 136.141 34.9531C135.734 33.0781 135.125 31.1719 134.312 29.2344L134.125 28.8594L134.219 28.3906C134.562 27.1719 134.844 25.9844 135.062 24.8281C135.281 23.6719 135.422 22.5156 135.484 21.3594C135.047 21.2969 134.609 21.25 134.172 21.2188C133.766 21.1875 133.359 21.1719 132.953 21.1719C132.078 21.1719 131.203 21.2344 130.328 21.3594C129.453 21.4844 128.516 21.6719 127.516 21.9219L126.812 21.8281C125.906 21.6719 125.078 21.5 124.328 21.3125C123.578 21.0938 122.812 20.8906 122.031 20.7031C121.969 21.1719 121.938 21.625 121.938 22.0625C121.938 22.5 121.938 22.9375 121.938 23.375C121.938 24.0625 121.969 24.7656 122.031 25.4844C122.125 26.2031 122.25 26.9688 122.406 27.7812V28.2031ZM201.25 7.90625L200.969 8.51562C200.375 10.2344 199.938 11.9375 199.656 13.625C199.375 15.2812 199.234 16.9062 199.234 18.5C199.234 19.8125 199.312 21.0938 199.469 22.3438C199.625 23.5625 199.906 24.8125 200.312 26.0938V26.75C199.344 30.1562 198.859 33.4219 198.859 36.5469C198.859 38.1406 198.984 39.7031 199.234 41.2344C199.484 42.7344 199.875 44.2344 200.406 45.7344L200.594 46.1562L200.406 46.5312C199.25 49.7188 198.672 52.9844 198.672 56.3281C198.672 57.9219 198.797 59.5 199.047 61.0625C199.297 62.625 199.719 64.2031 200.312 65.7969L200.406 66.3125L200.172 66.6875C200.172 66.75 200.016 67.0312 199.703 67.5312C199.422 68 198.922 68.5312 198.203 69.125C197.484 69.6875 196.516 70.2031 195.297 70.6719C194.078 71.1406 192.547 71.375 190.703 71.375C190.078 71.375 189.484 71.3281 188.922 71.2344C188.359 71.1719 187.828 71.0938 187.328 71C187.266 71.0625 187.203 71.1094 187.141 71.1406C187.078 71.2031 187.016 71.2812 186.953 71.375C185.578 72.5625 184.297 73.375 183.109 73.8125C181.953 74.25 180.891 74.4688 179.922 74.4688C179.047 74.4688 178.344 74.3594 177.812 74.1406C177.312 73.9531 177.031 73.8281 176.969 73.7656L176.594 73.5781L176.406 73.1094C175.938 71.8594 175.422 70.6875 174.859 69.5938C174.328 68.4688 173.703 67.4219 172.984 66.4531C172.266 65.4531 171.422 64.5 170.453 63.5938C169.484 62.6875 168.359 61.7969 167.078 60.9219L166.703 60.7344L166.609 60.3594C165.984 58.8281 165.359 57.4844 164.734 56.3281C164.109 55.1719 163.391 54.125 162.578 53.1875C161.797 52.2188 160.891 51.3281 159.859 50.5156C158.828 49.6719 157.609 48.8125 156.203 47.9375L155.734 47.6562L155.641 47C155.641 46.9062 155.656 46.625 155.688 46.1562C155.688 45.6562 155.812 45.0312 156.062 44.2812C156.281 43.5312 156.672 42.7031 157.234 41.7969C157.766 40.8906 158.547 39.9688 159.578 39.0312C160.297 38.375 161.016 37.8594 161.734 37.4844C162.484 37.0781 163.188 36.7656 163.844 36.5469C164.5 36.2969 165.109 36.1406 165.672 36.0781C166.266 35.9844 166.766 35.9375 167.172 35.9375C167.547 35.9375 167.844 35.9688 168.062 36.0312C168.312 36.0625 168.469 36.0781 168.531 36.0781L169.188 36.2656L169.375 36.8281C170.031 38.3281 170.672 39.625 171.297 40.7188C171.953 41.8125 172.656 42.7969 173.406 43.6719C174.156 44.5469 175 45.375 175.938 46.1562C176.906 46.9062 178.016 47.6719 179.266 48.4531L179.641 48.9219C180.359 50.1719 181 51.2969 181.562 52.2969C182.156 53.2656 182.766 54.1875 183.391 55.0625V54.7812C183.391 52.1562 183.109 49.4062 182.547 46.5312V45.9219C182.922 44.3906 183.219 42.8906 183.438 41.4219C183.656 39.9219 183.766 38.4219 183.766 36.9219C183.766 35.2656 183.625 33.6406 183.344 32.0469C183.094 30.4531 182.719 28.875 182.219 27.3125L182.125 26.8438L182.359 26.4688C183.016 24.7812 183.516 23.0938 183.859 21.4062C184.203 19.6875 184.375 17.9844 184.375 16.2969C184.375 13.5781 183.953 10.8281 183.109 8.04688L182.922 7.4375L183.297 6.96875C183.328 6.9375 183.516 6.75 183.859 6.40625C184.203 6.03125 184.719 5.64062 185.406 5.23438C186.094 4.79688 186.969 4.42188 188.031 4.10938C189.094 3.76562 190.359 3.59375 191.828 3.59375C193.328 3.59375 194.625 3.79688 195.719 4.20312C196.844 4.57812 197.766 5 198.484 5.46875C199.234 5.9375 199.797 6.375 200.172 6.78125C200.547 7.1875 200.75 7.40625 200.781 7.4375L201.25 7.90625ZM241.609 37.8594C241.609 39.2656 241.422 40.5 241.047 41.5625C240.672 42.5938 240.25 43.4688 239.781 44.1875C239.312 44.9062 238.875 45.4531 238.469 45.8281C238.094 46.2031 237.891 46.4062 237.859 46.4375L237.391 46.8125L236.734 46.625C234.984 46.0312 233.438 45.5938 232.094 45.3125C230.781 45.0312 229.469 44.8906 228.156 44.8906C227.188 44.8906 226.234 44.9844 225.297 45.1719L225.578 45.7344L225.766 46.1562L225.578 46.5312C224.828 48.6562 224.312 50.7656 224.031 52.8594C224.531 52.7344 225.094 52.625 225.719 52.5312C226.344 52.4375 226.938 52.3594 227.5 52.2969C228.062 52.2344 228.531 52.1875 228.906 52.1562C229.281 52.125 229.484 52.1094 229.516 52.1094L229.891 51.9688L230.266 52.2031C232.047 52.9219 233.562 53.4688 234.812 53.8438C236.062 54.2188 237.328 54.4062 238.609 54.4062C239.484 54.4062 240.438 54.3125 241.469 54.125C242.5 53.9375 243.672 53.6719 244.984 53.3281L245.547 53.1406L246.016 53.5156C246.047 53.5781 246.219 53.7812 246.531 54.125C246.875 54.4375 247.234 54.9375 247.609 55.625C247.984 56.2812 248.328 57.125 248.641 58.1562C248.953 59.1562 249.109 60.3594 249.109 61.7656C249.078 63.1719 248.859 64.3906 248.453 65.4219C248.047 66.4531 247.609 67.3281 247.141 68.0469C246.672 68.7344 246.234 69.2656 245.828 69.6406C245.422 70.0156 245.203 70.2188 245.172 70.25L244.562 70.5312L244 70.3438C242.156 69.6562 240.625 69.1719 239.406 68.8906C238.188 68.5781 237 68.4219 235.844 68.4219C235.031 68.4219 234.188 68.5 233.312 68.6562C232.438 68.7812 231.422 68.9844 230.266 69.2656H229.609C228.734 69.1094 227.859 68.9375 226.984 68.75C226.141 68.5312 225.281 68.3281 224.406 68.1406C224.094 68.4844 223.688 68.8594 223.188 69.2656C222.719 69.6406 222.125 69.9844 221.406 70.2969C220.719 70.6094 219.906 70.8594 218.969 71.0469C218.062 71.2656 217.031 71.375 215.875 71.375C214.031 71.375 212.5 71.125 211.281 70.625C210.094 70.125 209.141 69.5781 208.422 68.9844C207.734 68.3594 207.25 67.7969 206.969 67.2969C206.688 66.7656 206.547 66.4688 206.547 66.4062L206.359 66.0312L206.547 65.5156C207.266 63.7969 207.797 62.0312 208.141 60.2188C208.484 58.4062 208.656 56.5625 208.656 54.6875C208.656 53.375 208.578 52.0469 208.422 50.7031C208.297 49.3594 208.062 47.9688 207.719 46.5312V45.9219C208.094 44.3906 208.391 42.8906 208.609 41.4219C208.859 39.9219 208.984 38.4219 208.984 36.9219C208.984 35.2656 208.844 33.6406 208.562 32.0469C208.281 30.4531 207.906 28.875 207.438 27.3125L207.344 26.8438L207.531 26.4688C208.219 24.7812 208.719 23.0938 209.031 21.4062C209.375 19.6875 209.547 17.9844 209.547 16.2969C209.547 14.9219 209.438 13.5625 209.219 12.2188C209.031 10.8438 208.719 9.45312 208.281 8.04688L208.094 7.4375L208.469 6.96875C208.5 6.9375 208.688 6.75 209.031 6.40625C209.375 6.03125 209.891 5.64062 210.578 5.23438C211.297 4.79688 212.188 4.42188 213.25 4.10938C214.312 3.76562 215.578 3.59375 217.047 3.59375C218.734 3.59375 220.172 3.82812 221.359 4.29688C222.547 4.76562 223.5 5.26562 224.219 5.79688C225.125 5.70312 226.078 5.5625 227.078 5.375C228.078 5.1875 229.078 4.92188 230.078 4.57812L230.453 4.39062L230.969 4.48438C232.469 4.95312 233.766 5.3125 234.859 5.5625C235.984 5.78125 237.047 5.89062 238.047 5.89062C239.141 5.89062 240.281 5.75 241.469 5.46875C242.656 5.1875 244.047 4.76562 245.641 4.20312L246.203 3.96875L246.719 4.29688C246.75 4.32812 246.953 4.5 247.328 4.8125C247.703 5.125 248.109 5.60938 248.547 6.26562C248.984 6.89062 249.391 7.70312 249.766 8.70312C250.172 9.67188 250.422 10.8594 250.516 12.2656V13.1094C250.516 14.3594 250.359 15.4688 250.047 16.4375C249.734 17.4062 249.375 18.2344 248.969 18.9219C248.594 19.5781 248.234 20.0781 247.891 20.4219C247.578 20.7656 247.406 20.9531 247.375 20.9844L246.906 21.3594L246.203 21.1719C244.703 20.8281 243.422 20.5781 242.359 20.4219C241.297 20.2344 240.312 20.1406 239.406 20.1406C238.344 20.1406 237.281 20.2656 236.219 20.5156C235.188 20.7344 233.938 21.0781 232.469 21.5469L231.812 21.6406C230.5 21.3906 229.234 21.2031 228.016 21.0781C226.828 20.9531 225.625 20.8906 224.406 20.8906C224.5 21.7656 224.625 22.6406 224.781 23.5156C224.969 24.3594 225.203 25.2188 225.484 26.0938V26.75C225.297 27.3125 225.141 27.875 225.016 28.4375C224.922 28.9688 224.828 29.5312 224.734 30.125C225.641 30.375 226.484 30.5469 227.266 30.6406C228.078 30.7344 228.922 30.7812 229.797 30.7812C230.953 30.7812 232.125 30.6875 233.312 30.5C234.5 30.2812 235.797 29.9531 237.203 29.5156L237.766 29.3281L238.234 29.7031C238.266 29.7344 238.453 29.9219 238.797 30.2656C239.172 30.5781 239.562 31.0781 239.969 31.7656C240.406 32.4219 240.781 33.2656 241.094 34.2969C241.438 35.2969 241.609 36.4844 241.609 37.8594ZM274.75 28.2031L274.656 28.4844C273.75 30.6094 273.094 32.5469 272.688 34.2969C272.281 36.0156 272.078 37.7188 272.078 39.4062C272.078 40.4062 272.141 41.4062 272.266 42.4062C272.391 43.4062 272.578 44.4531 272.828 45.5469L272.922 45.9219L272.734 46.3438C271.828 48.125 271.125 49.7188 270.625 51.125C270.156 52.5 269.875 53.9375 269.781 55.4375C270.406 55.3438 270.969 55.2344 271.469 55.1094C271.969 54.9844 272.453 54.8438 272.922 54.6875C273.422 54.5 273.922 54.3125 274.422 54.125C274.953 53.9375 275.547 53.7344 276.203 53.5156C276.359 53.4531 276.5 53.4062 276.625 53.375C276.75 53.3125 276.891 53.2344 277.047 53.1406L277.422 52.9531L277.844 53.0469C278.906 53.2969 279.906 53.4688 280.844 53.5625C281.812 53.6562 282.719 53.7031 283.562 53.7031C285.344 53.7031 287.078 53.4844 288.766 53.0469C290.453 52.6094 292.312 51.9062 294.344 50.9375L294.906 50.6562L295.375 50.9375C295.406 50.9688 295.625 51.125 296.031 51.4062C296.438 51.6875 296.891 52.1406 297.391 52.7656C297.922 53.3594 298.438 54.1406 298.938 55.1094C299.438 56.0469 299.797 57.2188 300.016 58.625C300.078 58.9688 300.109 59.2969 300.109 59.6094C300.109 59.9219 300.109 60.2344 300.109 60.5469C300.109 61.6406 299.984 62.625 299.734 63.5C299.484 64.375 299.203 65.125 298.891 65.75C298.578 66.3438 298.281 66.8125 298 67.1562C297.75 67.5 297.609 67.6875 297.578 67.7188L297.109 68.2344L296.547 68.0469C295.578 67.8906 294.656 67.7656 293.781 67.6719C292.906 67.5781 292.062 67.5312 291.25 67.5312C289.406 67.5312 287.688 67.75 286.094 68.1875C284.531 68.625 282.828 69.2812 280.984 70.1562L280.609 70.3438L280.328 70.25C279.609 70.25 278.906 70.2188 278.219 70.1562C277.531 70.0938 276.859 70.0625 276.203 70.0625C273.859 70.0625 271.578 70.3281 269.359 70.8594C267.141 71.3906 264.969 72.2031 262.844 73.2969L262.375 73.4844L262 73.3906C262.094 73.4219 261.859 73.3281 261.297 73.1094C260.734 72.8906 260.078 72.4844 259.328 71.8906C258.578 71.3281 257.844 70.5469 257.125 69.5469C256.438 68.5156 256.016 67.2031 255.859 65.6094C255.016 65.1406 254.312 64.6406 253.75 64.1094C253.219 63.5469 252.781 63.0312 252.438 62.5625C252.125 62.0938 251.906 61.7031 251.781 61.3906C251.656 61.0469 251.594 60.8594 251.594 60.8281L251.5 60.3594L251.688 59.9375C252.281 58.875 252.797 57.875 253.234 56.9375C253.672 56 254.031 55.0938 254.312 54.2188C254.594 53.3125 254.797 52.4062 254.922 51.5C255.078 50.5625 255.156 49.5469 255.156 48.4531C255.156 47.1719 255.062 45.7344 254.875 44.1406L254.969 43.5312C255.781 41.5625 256.375 39.7344 256.75 38.0469C257.156 36.3594 257.359 34.6719 257.359 32.9844C257.359 32.0156 257.297 31.0312 257.172 30.0312C257.047 29 256.891 27.9375 256.703 26.8438L256.609 26.375L256.797 26.0938C257.516 24.6875 258.109 23.4062 258.578 22.25C259.047 21.0625 259.406 19.875 259.656 18.6875C259.188 18.0625 258.781 17.2344 258.438 16.2031C258.125 15.1406 257.969 13.8594 257.969 12.3594C257.969 10.3594 258.219 8.73438 258.719 7.48438C259.25 6.20312 259.828 5.20312 260.453 4.48438C261.109 3.76562 261.703 3.28125 262.234 3.03125C262.766 2.78125 263.062 2.65625 263.125 2.65625L263.594 2.46875L264.016 2.65625C265.641 3.46875 267.281 4.0625 268.938 4.4375C270.594 4.78125 272.344 4.95312 274.188 4.95312C274.938 4.95312 275.812 4.95312 276.812 4.95312C277.812 4.92188 278.719 4.76562 279.531 4.48438L279.953 4.39062L280.328 4.57812C282.172 5.39062 283.844 6.01562 285.344 6.45312C286.875 6.85938 288.438 7.0625 290.031 7.0625C291 7.0625 291.969 7 292.938 6.875C293.938 6.71875 294.984 6.5 296.078 6.21875L296.641 6.125L297.016 6.5C297.047 6.53125 297.219 6.70312 297.531 7.01562C297.844 7.32812 298.156 7.79688 298.469 8.42188C298.812 9.04688 299.125 9.84375 299.406 10.8125C299.688 11.75 299.828 12.875 299.828 14.1875V14.9375C299.734 16.3438 299.469 17.5781 299.031 18.6406C298.625 19.6719 298.188 20.5312 297.719 21.2188C297.25 21.875 296.812 22.375 296.406 22.7188C296.031 23.0625 295.828 23.25 295.797 23.2812L295.188 23.6562L294.625 23.4688C292.781 22.6875 291.125 22.1094 289.656 21.7344C288.219 21.3594 286.766 21.1719 285.297 21.1719C284.422 21.1719 283.547 21.2344 282.672 21.3594C281.797 21.4844 280.859 21.6719 279.859 21.9219L279.156 21.8281C278.25 21.6719 277.422 21.5 276.672 21.3125C275.922 21.0938 275.156 20.8906 274.375 20.7031C274.312 21.1719 274.281 21.625 274.281 22.0625C274.281 22.5 274.281 22.9375 274.281 23.375C274.281 24.0625 274.312 24.7656 274.375 25.4844C274.469 26.2031 274.594 26.9688 274.75 27.7812V28.2031ZM331.469 47.6562L331.281 48.0781C330.125 51.2656 329.547 54.2969 329.547 57.1719C329.547 58.5781 329.672 59.9844 329.922 61.3906C330.203 62.7969 330.609 64.2969 331.141 65.8906L331.375 66.4062L331.141 66.7812C331.109 66.8438 330.938 67.125 330.625 67.625C330.312 68.0938 329.797 68.6094 329.078 69.1719C328.359 69.7344 327.391 70.25 326.172 70.7188C324.953 71.1562 323.422 71.375 321.578 71.375C319.734 71.375 318.203 71.1406 316.984 70.6719C315.797 70.1719 314.859 69.625 314.172 69.0312C313.484 68.4062 313 67.8438 312.719 67.3438C312.438 66.8438 312.281 66.5625 312.25 66.5L312.062 66.0312L312.25 65.6094C312.969 63.8906 313.5 62.2188 313.844 60.5938C314.188 58.9688 314.359 57.3125 314.359 55.625C314.359 54.4688 314.281 53.2812 314.125 52.0625C314 50.8125 313.766 49.4844 313.422 48.0781V47.4688C313.859 45.875 314.172 44.375 314.359 42.9688C314.547 41.5625 314.641 40.1875 314.641 38.8438C314.641 36 314.156 33.125 313.188 30.2188L313 29.7969L313.188 29.4219C313.875 27.7344 314.359 26.0469 314.641 24.3594C314.953 22.6406 315.141 20.9375 315.203 19.25H314.734C311.547 19.25 308.375 19.8281 305.219 20.9844L304.844 21.0781L304.375 20.8906C304.312 20.8906 304.031 20.75 303.531 20.4688C303.031 20.1875 302.469 19.7031 301.844 19.0156C301.25 18.3281 300.719 17.4062 300.25 16.25C299.75 15.0625 299.5 13.5625 299.5 11.75C299.5 10.0625 299.734 8.6875 300.203 7.625C300.672 6.53125 301.188 5.67188 301.75 5.04688C302.344 4.39062 302.875 3.9375 303.344 3.6875C303.844 3.40625 304.125 3.25 304.188 3.21875L304.562 3.03125L305.031 3.21875C306.406 3.71875 307.781 4.07812 309.156 4.29688C310.531 4.48438 311.953 4.57812 313.422 4.57812C314.734 4.57812 316.141 4.53125 317.641 4.4375C319.172 4.3125 320.609 4 321.953 3.5L322.328 3.3125L322.703 3.5C324.297 4.03125 325.797 4.42188 327.203 4.67188C328.641 4.92188 330.062 5.04688 331.469 5.04688C334 5.04688 336.781 4.5625 339.812 3.59375L340.375 3.40625L340.844 3.78125C340.875 3.8125 341.078 3.98438 341.453 4.29688C341.828 4.60938 342.219 5.09375 342.625 5.75C343.062 6.375 343.453 7.1875 343.797 8.1875C344.172 9.15625 344.375 10.3125 344.406 11.6562C344.406 13.0625 344.234 14.2969 343.891 15.3594C343.547 16.3906 343.156 17.2656 342.719 17.9844C342.312 18.6719 341.922 19.2031 341.547 19.5781C341.172 19.9219 340.969 20.1406 340.938 20.2344L340.469 20.6094L339.812 20.4219C338.219 19.9219 336.75 19.5781 335.406 19.3906C334.094 19.1719 332.781 19.0625 331.469 19.0625H330.109C330.047 19.5 330.031 19.9219 330.062 20.3281C330.094 20.7031 330.109 21.0781 330.109 21.4531C330.109 22.7656 330.188 24.0469 330.344 25.2969C330.531 26.5469 330.797 27.7969 331.141 29.0469V29.6094C330.672 31.3594 330.312 32.9688 330.062 34.4375C329.844 35.9062 329.734 37.3438 329.734 38.75C329.734 40.1875 329.859 41.5938 330.109 42.9688C330.359 44.3438 330.75 45.7812 331.281 47.2812L331.469 47.6562ZM386.359 57.1719C386.359 57.2656 386.344 57.5781 386.312 58.1094C386.281 58.6406 386.109 59.3125 385.797 60.125C385.516 60.9062 385.031 61.7656 384.344 62.7031C383.656 63.6406 382.641 64.5469 381.297 65.4219C380.953 66.1406 380.609 66.7031 380.266 67.1094C379.922 67.5156 379.719 67.75 379.656 67.8125L379.281 68.3281L378.578 68.2344C377.484 68.0781 376.516 67.9531 375.672 67.8594C374.859 67.7656 374.109 67.7188 373.422 67.7188C372.703 67.7188 372.031 67.7656 371.406 67.8594C370.781 67.9531 370.141 68.0938 369.484 68.2812C368.859 68.4688 368.188 68.7188 367.469 69.0312C366.781 69.3125 366.016 69.6562 365.172 70.0625L364.469 70.1562C363.656 70.1562 362.859 70.125 362.078 70.0625C361.328 69.9688 360.656 69.9219 360.062 69.9219C359.219 69.9219 358.453 69.9688 357.766 70.0625C357.109 70.1562 356.453 70.3125 355.797 70.5312C355.141 70.75 354.438 71.0312 353.688 71.375C352.938 71.7188 352.062 72.1406 351.062 72.6406L350.547 72.9219L350.172 72.8281C348.984 72.4219 347.938 71.7969 347.031 70.9531C346.25 70.2344 345.531 69.2188 344.875 67.9062C344.25 66.5938 343.938 64.875 343.938 62.75C343.938 61.4375 344.109 60.3281 344.453 59.4219C344.828 58.5156 345.234 57.7812 345.672 57.2188C346.141 56.6562 346.562 56.25 346.938 56C347.312 55.7188 347.531 55.5625 347.594 55.5312L347.969 55.25L348.438 55.3438C349.406 55.5312 350.25 55.6719 350.969 55.7656C351.688 55.8594 352.359 55.9062 352.984 55.9062C353.547 55.9062 354.094 55.875 354.625 55.8125C355.188 55.7188 355.781 55.5938 356.406 55.4375C357.031 55.25 357.719 55.0312 358.469 54.7812C359.25 54.5 360.172 54.1719 361.234 53.7969L361.609 53.6094L361.984 53.7031C363.453 54.0156 364.766 54.2188 365.922 54.3125C365.547 53.7188 365.094 53.1406 364.562 52.5781C364.062 51.9844 363.531 51.375 362.969 50.75L362.641 50.2812C362.203 48.6875 361.719 47.2344 361.188 45.9219C360.656 44.5781 360.031 43.3281 359.312 42.1719C358.625 41.0156 357.844 39.9219 356.969 38.8906C356.094 37.8594 355.109 36.8438 354.016 35.8438L353.641 35.5625V35.1875C353.109 32 352.141 29.0938 350.734 26.4688C349.328 23.8125 347.453 21.4062 345.109 19.25L344.688 18.875V18.3125C344.688 18.2812 344.719 18.1406 344.781 17.8906C344.844 17.6406 344.953 17.3125 345.109 16.9062C345.266 16.5 345.5 16.0312 345.812 15.5C346.125 14.9688 346.531 14.4219 347.031 13.8594C346.969 13.7031 346.938 13.5625 346.938 13.4375C346.938 13.3125 346.938 13.1719 346.938 13.0156C346.938 11.7031 347.109 10.5938 347.453 9.6875C347.828 8.78125 348.234 8.04688 348.672 7.48438C349.109 6.92188 349.516 6.51562 349.891 6.26562C350.266 5.98438 350.484 5.82812 350.547 5.79688L350.969 5.60938L351.438 5.70312C353.188 6.10938 354.656 6.3125 355.844 6.3125C356.406 6.3125 356.938 6.28125 357.438 6.21875C357.938 6.125 358.469 6 359.031 5.84375C359.625 5.65625 360.266 5.45312 360.953 5.23438C361.641 5.01562 362.438 4.76562 363.344 4.48438C363.5 4.42188 363.641 4.375 363.766 4.34375C363.891 4.28125 364.031 4.20312 364.188 4.10938L364.562 3.875L364.984 3.96875C366.141 4.21875 367.156 4.40625 368.031 4.53125C368.938 4.625 369.766 4.67188 370.516 4.67188C371.922 4.67188 373.281 4.46875 374.594 4.0625C375.906 3.65625 377.5 3.03125 379.375 2.1875L379.938 1.85938L380.5 2.1875C380.531 2.21875 380.734 2.35938 381.109 2.60938C381.516 2.85937 381.969 3.26562 382.469 3.82812C382.969 4.39062 383.469 5.125 383.969 6.03125C384.469 6.9375 384.828 8.04688 385.047 9.35938C385.109 9.70312 385.156 10.0625 385.188 10.4375C385.219 10.7812 385.234 11.0938 385.234 11.375C385.234 12.4375 385.109 13.3906 384.859 14.2344C384.609 15.0469 384.328 15.75 384.016 16.3438C383.703 16.9062 383.406 17.3594 383.125 17.7031C382.875 18.0156 382.734 18.1875 382.703 18.2188L382.234 18.5938L381.578 18.5C380.516 18.3438 379.562 18.2344 378.719 18.1719C377.906 18.0781 377.156 18.0312 376.469 18.0312C375.75 18.0312 375.078 18.0781 374.453 18.1719C373.828 18.2344 373.188 18.3594 372.531 18.5469C371.906 18.7344 371.234 18.9844 370.516 19.2969C369.797 19.5781 369 19.9219 368.125 20.3281L367.844 20.5156L367.469 20.4219C366.688 20.4219 365.984 20.4062 365.359 20.375C364.734 20.3438 364.156 20.3281 363.625 20.3281C364.25 21.3906 364.938 22.4062 365.688 23.375C366.469 24.3125 367.344 25.2188 368.312 26.0938L368.594 26.5625C369.062 28.25 369.562 29.7969 370.094 31.2031C370.625 32.5781 371.234 33.8594 371.922 35.0469C372.609 36.2031 373.391 37.2969 374.266 38.3281C375.172 39.3594 376.203 40.3594 377.359 41.3281L377.734 42.0312C378.047 43.6562 378.406 45.125 378.812 46.4375C379.25 47.7188 379.781 48.9219 380.406 50.0469C381.062 51.1719 381.828 52.25 382.703 53.2812C383.609 54.3125 384.703 55.3594 385.984 56.4219L386.266 56.7031L386.359 57.1719Z" fill="#253976"/>
</svg>
