<svg width="423" height="127" viewBox="0 0 423 127" fill="none" xmlns="http://www.w3.org/2000/svg">
<path d="M36.6719 82.6094C35.4219 83.6406 34 84.7188 32.4062 85.8438C30.8438 86.9375 29.1719 87.9375 27.3906 88.8438C25.6094 89.7812 23.7344 90.5469 21.7656 91.1406C19.8281 91.7344 17.8594 92.0312 15.8594 92.0312C15.2656 92.0312 14.6562 91.9531 14.0312 91.7969C13.4375 91.6406 12.9062 91.3594 12.4375 90.9531C11.9688 90.5781 11.5781 90.0625 11.2656 89.4062C10.9844 88.75 10.875 87.9219 10.9375 86.9219C10.9375 85.7969 11 82.9062 11.125 78.25C11.1562 76.2812 11.2031 73.8281 11.2656 70.8906C11.3594 67.9531 11.4531 64.4062 11.5469 60.25C11.6719 56.0938 11.8125 51.2656 11.9688 45.7656C12.125 40.2656 12.2969 33.9531 12.4844 26.8281C10.4219 27.0781 8.39062 27.3125 6.39062 27.5312C4.42188 27.75 2.51562 27.9375 0.671875 28.0938L12.6719 19.2812C13.8281 19.4688 15.0469 19.5938 16.3281 19.6562C17.6406 19.7188 18.9219 19.75 20.1719 19.75C22.0156 19.75 23.8125 19.6875 25.5625 19.5625C27.3125 19.4375 29.0156 19.2969 30.6719 19.1406C32.3594 18.9531 34.0156 18.7969 35.6406 18.6719C37.2969 18.5469 38.9531 18.4844 40.6094 18.4844C43.2969 18.4844 45.9531 18.8281 48.5781 19.5156C51.2031 20.1719 53.5469 21.2031 55.6094 22.6094C57.7031 23.9844 59.3906 25.75 60.6719 27.9062C61.9531 30.0312 62.5938 32.5625 62.5938 35.5C62.5938 37.7188 62.1406 39.9531 61.2344 42.2031C60.3594 44.4219 59.1562 46.5781 57.625 48.6719C56.125 50.7656 54.375 52.7344 52.375 54.5781C50.375 56.4219 48.2656 58.0312 46.0469 59.4062C43.8594 60.7812 41.625 61.8906 39.3438 62.7344C37.0625 63.5781 34.8906 64.0312 32.8281 64.0938L31.4219 63.1562C34.1406 62.5312 36.6562 61.5625 38.9688 60.25C41.2812 58.9375 43.2812 57.3594 44.9688 55.5156C46.6562 53.6406 47.9688 51.5312 48.9062 49.1875C49.8438 46.8125 50.3125 44.2656 50.3125 41.5469C50.3125 39.6406 50.0312 37.9219 49.4688 36.3906C48.9062 34.8594 48.125 33.5 47.125 32.3125C46.125 31.125 44.9531 30.1094 43.6094 29.2656C42.2969 28.3906 40.875 27.6875 39.3438 27.1562C37.8125 26.5938 36.2188 26.1875 34.5625 25.9375C32.9375 25.6562 31.3125 25.5156 29.6875 25.5156C28.7812 25.5156 27.8594 25.5312 26.9219 25.5625C26.0156 25.5938 25.1094 25.6406 24.2031 25.7031L22.375 82.6094C23.0938 83.1406 23.9531 83.5156 24.9531 83.7344C25.9531 83.9531 26.9844 84.0625 28.0469 84.0625C29.1094 84.0625 30.1562 84 31.1875 83.875C32.2188 83.7188 33.1406 83.5469 33.9531 83.3594C34.9219 83.1406 35.8281 82.8906 36.6719 82.6094ZM88.8438 50.0781C90.3125 48.6719 91.9062 47.2656 93.625 45.8594C95.375 44.4531 97.1406 43.1875 98.9219 42.0625C100.734 40.9062 102.547 39.9688 104.359 39.25C106.172 38.5312 107.875 38.1719 109.469 38.1719C110.562 38.1719 111.625 38.2969 112.656 38.5469C113.719 38.7656 114.75 39.0312 115.75 39.3438C116.781 39.625 117.797 39.8906 118.797 40.1406C119.797 40.3594 120.812 40.4688 121.844 40.4688C122.469 40.4688 123.125 40.4219 123.812 40.3281C124.5 40.2344 125.281 40.0625 126.156 39.8125C124.188 41.3125 122.469 42.6094 121 43.7031C119.531 44.7969 118.156 45.7031 116.875 46.4219C115.594 47.1094 114.312 47.625 113.031 47.9688C111.781 48.2812 110.375 48.4062 108.812 48.3438C107.281 48.3125 105.828 48.1562 104.453 47.875C103.109 47.5938 101.875 47.3125 100.75 47.0312C99.6562 46.7188 98.6875 46.5 97.8438 46.375C97.0312 46.2188 96.3906 46.2656 95.9219 46.5156C94.7969 47.0781 93.8125 48.1094 92.9688 49.6094C92.125 51.1094 91.4062 52.8906 90.8125 54.9531C90.25 57.0156 89.7812 59.25 89.4062 61.6562C89.0625 64.0625 88.7969 66.4688 88.6094 68.875C88.4531 71.2812 88.375 73.5781 88.375 75.7656C88.375 77.9219 88.4375 79.7969 88.5625 81.3906C86.2188 82.8906 84.2812 84.1875 82.75 85.2812C81.2188 86.375 80 87.2812 79.0938 88C78.0312 88.8438 77.2188 89.5781 76.6562 90.2031C76.6875 88.3281 76.7344 86.0625 76.7969 83.4062C76.8594 80.7188 76.9062 77.9062 76.9375 74.9688C77 72.0312 77.0469 69.125 77.0781 66.25C77.1094 63.3438 77.125 60.7344 77.125 58.4219C77.125 56.9531 77.0781 55.4688 76.9844 53.9688C76.9219 52.4375 76.6719 51.0469 76.2344 49.7969C75.7969 48.5469 75.1094 47.5312 74.1719 46.75C73.2656 45.9688 71.9688 45.5781 70.2812 45.5781C69.625 45.5781 68.9375 45.6562 68.2188 45.8125C67.5312 45.9375 66.8438 46.1719 66.1562 46.5156C67.4688 45.6406 68.7812 44.75 70.0938 43.8438C71.4062 42.9375 72.7188 42.125 74.0312 41.4062C75.375 40.6562 76.7031 40.0625 78.0156 39.625C79.3594 39.1562 80.7188 38.9219 82.0938 38.9219C83.75 38.9219 85.0312 39.2812 85.9375 40C86.875 40.7188 87.5469 41.625 87.9531 42.7188C88.3906 43.8125 88.6406 45.0156 88.7031 46.3281C88.7969 47.6406 88.8438 48.8906 88.8438 50.0781ZM179.828 60.7188C179.828 63.3125 179.469 65.6719 178.75 67.7969C178.031 69.9219 177.172 71.7812 176.172 73.375C175.172 74.9688 174.156 76.2969 173.125 77.3594C172.094 78.4219 171.266 79.1875 170.641 79.6562C168.828 80.9688 166.969 82.25 165.062 83.5C163.156 84.75 161.188 85.875 159.156 86.875C157.156 87.8438 155.094 88.625 152.969 89.2188C150.844 89.8125 148.656 90.1094 146.406 90.1094C143.062 90.1094 139.891 89.6875 136.891 88.8438C133.922 88 131.312 86.7344 129.062 85.0469C126.844 83.3594 125.078 81.2344 123.766 78.6719C122.484 76.1094 121.844 73.1094 121.844 69.6719C121.844 66.6406 122.359 63.7969 123.391 61.1406C124.453 58.4531 125.859 55.9844 127.609 53.7344C129.391 51.4844 131.469 49.4688 133.844 47.6875C136.219 45.875 138.734 44.3438 141.391 43.0938C144.047 41.8438 146.781 40.8906 149.594 40.2344C152.406 39.5781 155.125 39.25 157.75 39.25C161 39.25 163.969 39.7969 166.656 40.8906C169.375 41.9531 171.703 43.4531 173.641 45.3906C175.609 47.2969 177.125 49.5625 178.188 52.1875C179.281 54.8125 179.828 57.6562 179.828 60.7188ZM147.484 44.6875C145.891 44.6875 144.438 44.9844 143.125 45.5781C141.812 46.1406 140.641 46.9219 139.609 47.9219C138.609 48.8906 137.734 50.0312 136.984 51.3438C136.266 52.625 135.656 53.9844 135.156 55.4219C134.688 56.8281 134.328 58.2656 134.078 59.7344C133.859 61.1719 133.75 62.5312 133.75 63.8125C133.75 66.7188 134.281 69.4375 135.344 71.9688C136.406 74.4688 137.859 76.6562 139.703 78.5312C141.578 80.4062 143.75 81.875 146.219 82.9375C148.719 84 151.375 84.5312 154.188 84.5312C155.938 84.5312 157.625 84.2031 159.25 83.5469C160.906 82.8594 162.359 81.7969 163.609 80.3594C164.891 78.8906 165.906 77.0156 166.656 74.7344C167.438 72.4219 167.828 69.6406 167.828 66.3906C167.828 63.5469 167.297 60.8125 166.234 58.1875C165.172 55.5625 163.719 53.25 161.875 51.25C160.031 49.25 157.875 47.6562 155.406 46.4688C152.938 45.2812 150.297 44.6875 147.484 44.6875ZM207.719 0.4375C207.719 1.40625 207.734 2.34375 207.766 3.25C207.797 4.15625 207.812 5.01563 207.812 5.82812C207.812 7.57812 207.641 9.09375 207.297 10.375C206.984 11.625 206.25 12.6094 205.094 13.3281C204.406 13.8281 203.547 14.4062 202.516 15.0625C201.609 15.6562 200.484 16.375 199.141 17.2188C197.797 18.0625 196.172 19.0625 194.266 20.2188C194.641 19.2188 194.906 18.0156 195.062 16.6094C195.25 15.1719 195.375 13.8125 195.438 12.5312C195.5 11.0312 195.5 9.46875 195.438 7.84375C197.375 6.8125 199.094 5.85938 200.594 4.98438C202.125 4.07813 203.422 3.28125 204.484 2.59375C205.734 1.8125 206.812 1.09375 207.719 0.4375ZM206.266 43.375C206.422 43.9375 206.516 45.1562 206.547 47.0312C206.609 48.9062 206.641 51.2031 206.641 53.9219C206.641 56.2656 206.625 58.8281 206.594 61.6094C206.562 64.3906 206.516 67.2188 206.453 70.0938C206.422 72.9375 206.375 75.75 206.312 78.5312C206.25 81.2812 206.188 83.8125 206.125 86.125C206.062 88.4375 206 90.4375 205.938 92.125C205.906 93.8125 205.891 95 205.891 95.6875C205.797 99.1875 204.438 102.828 201.812 106.609C199.188 110.422 195.172 114.234 189.766 118.047C187.547 119.609 185.375 120.922 183.25 121.984C181.125 123.078 179.094 123.953 177.156 124.609C175.219 125.266 173.391 125.734 171.672 126.016C169.922 126.328 168.328 126.484 166.891 126.484C166.047 126.484 165.062 126.375 163.938 126.156C162.812 125.969 161.688 125.688 160.562 125.312C159.406 124.938 158.297 124.5 157.234 124C156.172 123.5 155.312 122.953 154.656 122.359C153.969 121.766 153.547 121.141 153.391 120.484C153.234 119.859 153.453 119.234 154.047 118.609C154.672 118.047 155.531 117.344 156.625 116.5C157.562 115.781 158.812 114.859 160.375 113.734C161.938 112.641 163.891 111.297 166.234 109.703C165.797 110.141 165.5 110.562 165.344 110.969C165.156 111.406 165.062 111.812 165.062 112.188C165.062 113.031 165.391 113.75 166.047 114.344C166.703 114.969 167.547 115.484 168.578 115.891C169.578 116.328 170.703 116.672 171.953 116.922C173.203 117.203 174.422 117.422 175.609 117.578C176.797 117.734 177.875 117.828 178.844 117.859C179.812 117.922 180.531 117.953 181 117.953C182.969 117.953 184.656 117.641 186.062 117.016C187.469 116.391 188.641 115.547 189.578 114.484C190.547 113.422 191.312 112.188 191.875 110.781C192.469 109.375 192.922 107.891 193.234 106.328C193.547 104.766 193.75 103.156 193.844 101.5C193.969 99.875 194.047 98.3125 194.078 96.8125C194.078 96.4062 194.094 95.3906 194.125 93.7656C194.156 92.1719 194.188 90.2031 194.219 87.8594C194.25 85.5156 194.281 82.9219 194.312 80.0781C194.344 77.2344 194.359 74.3906 194.359 71.5469C194.391 68.6719 194.406 65.9062 194.406 63.25C194.438 60.5938 194.453 58.2812 194.453 56.3125C194.453 52.4375 194.156 49.6562 193.562 47.9688C192.969 46.25 191.859 45.3906 190.234 45.3906C189.703 45.3906 189.125 45.4531 188.5 45.5781C187.875 45.7031 187.203 45.8906 186.484 46.1406C187.547 45.3906 188.656 44.625 189.812 43.8438C190.969 43.0625 192.156 42.3594 193.375 41.7344C194.594 41.0781 195.828 40.5469 197.078 40.1406C198.328 39.7344 199.594 39.5312 200.875 39.5312C202.188 39.5312 203.344 39.8281 204.344 40.4219C205.344 41.0156 205.984 42 206.266 43.375ZM280.609 43.2812C277.016 45.0312 273.672 46.5938 270.578 47.9688C267.516 49.3125 264.812 50.4531 262.469 51.3906C259.75 52.4844 257.25 53.4531 254.969 54.2969C253.562 54.8906 252 55.5 250.281 56.125C248.594 56.7188 246.828 57.3125 244.984 57.9062C243.141 58.4688 241.25 59.0469 239.312 59.6406C237.406 60.2031 235.516 60.7656 233.641 61.3281V62.2656C233.641 65.4844 234.141 68.375 235.141 70.9375C236.172 73.5 237.594 75.6875 239.406 77.5C241.219 79.2812 243.391 80.6562 245.922 81.625C248.453 82.5625 251.25 83.0312 254.312 83.0312C255.906 83.0312 257.484 82.9062 259.047 82.6562C260.641 82.4062 262.141 82.0781 263.547 81.6719C264.984 81.2344 266.328 80.7188 267.578 80.125C268.828 79.5312 269.938 78.8906 270.906 78.2031C268.531 80.3281 266.078 82.1094 263.547 83.5469C261.047 84.9844 258.531 86.1562 256 87.0625C253.5 87.9375 251.016 88.5781 248.547 88.9844C246.109 89.3906 243.766 89.6094 241.516 89.6406C239.234 89.7031 236.984 89.3438 234.766 88.5625C232.578 87.8125 230.578 86.6562 228.766 85.0938C226.953 83.5312 225.422 81.5938 224.172 79.2812C222.922 76.9375 222.109 74.2188 221.734 71.125C221.578 70.0312 221.5 68.9844 221.5 67.9844C221.531 66.9531 221.641 65.9375 221.828 64.9375C220.734 65.3438 219.734 65.7188 218.828 66.0625C217.953 66.4062 217.234 66.75 216.672 67.0938C217.578 66.4688 218.484 65.8906 219.391 65.3594C220.297 64.7969 221.188 64.2812 222.062 63.8125C222.594 61.375 223.5 59.0469 224.781 56.8281C226.094 54.6094 227.656 52.5469 229.469 50.6406C231.312 48.7344 233.359 47.0156 235.609 45.4844C237.859 43.9219 240.188 42.5938 242.594 41.5C245.031 40.4062 247.5 39.5625 250 38.9688C252.5 38.375 254.922 38.0781 257.266 38.0781C258.828 38.0781 260.141 38.3125 261.203 38.7812C262.297 39.25 263.031 40.0781 263.406 41.2656C263.594 42.5156 263.141 43.8594 262.047 45.2969C261.578 45.9219 260.938 46.5938 260.125 47.3125C259.344 48 258.312 48.7344 257.031 49.5156C255.781 50.2969 254.266 51.1094 252.484 51.9531C250.734 52.7969 248.656 53.6406 246.25 54.4844L280.609 43.2812ZM243.438 54.6719C244.781 54.0781 245.984 53.4375 247.047 52.75C248.141 52.0625 248.984 51.3438 249.578 50.5938C250.203 49.8438 250.531 49.0625 250.562 48.25C250.594 47.4375 250.266 46.5781 249.578 45.6719C249.109 44.9844 248.453 44.5156 247.609 44.2656C246.797 43.9844 245.953 43.8438 245.078 43.8438C244.266 43.8438 243.484 43.9375 242.734 44.125C241.984 44.2812 241.328 44.5 240.766 44.7812C240.391 45 239.875 45.4844 239.219 46.2344C238.562 46.9531 237.891 47.9062 237.203 49.0938C236.516 50.25 235.859 51.6094 235.234 53.1719C234.641 54.7031 234.203 56.3906 233.922 58.2344C235.891 57.5156 237.672 56.875 239.266 56.3125C240.859 55.75 242.25 55.2031 243.438 54.6719ZM325.516 77.6406C324.203 78.7969 322.578 80.0312 320.641 81.3438C318.734 82.6562 316.609 83.8906 314.266 85.0469C311.953 86.1719 309.484 87.125 306.859 87.9062C304.234 88.6875 301.562 89.1094 298.844 89.1719C297.281 89.2344 295.625 89.0938 293.875 88.75C292.156 88.4375 290.453 87.9219 288.766 87.2031C287.109 86.4844 285.516 85.5781 283.984 84.4844C282.484 83.3594 281.156 82.0156 280 80.4531C278.844 78.8594 277.922 77.0469 277.234 75.0156C276.578 72.9844 276.25 70.7188 276.25 68.2188C276.25 65.125 276.766 62.25 277.797 59.5938C278.828 56.9062 280.219 54.4688 281.969 52.2812C283.719 50.0625 285.781 48.1094 288.156 46.4219C290.531 44.7031 293.062 43.2656 295.75 42.1094C298.438 40.9531 301.219 40.0781 304.094 39.4844C306.969 38.8594 309.781 38.5469 312.531 38.5469C312.875 38.5469 313.406 38.5625 314.125 38.5938C314.844 38.5938 315.641 38.625 316.516 38.6875C317.391 38.75 318.281 38.8594 319.188 39.0156C320.125 39.1406 320.969 39.3125 321.719 39.5312C322.5 39.75 323.125 40.0312 323.594 40.375C324.094 40.6875 324.344 41.0781 324.344 41.5469C324.344 42.0781 324.078 42.5938 323.547 43.0938C323.016 43.5938 322.391 44.0625 321.672 44.5C321.109 44.875 320.375 45.3281 319.469 45.8594C318.688 46.2969 317.688 46.8594 316.469 47.5469C315.281 48.2344 313.812 49.0469 312.062 49.9844C312.625 48.9844 312.719 48.1406 312.344 47.4531C311.969 46.7656 311.281 46.2188 310.281 45.8125C309.312 45.375 308.125 45.0625 306.719 44.875C305.344 44.6875 303.922 44.5938 302.453 44.5938C301.484 44.5938 300.531 44.6406 299.594 44.7344C298.688 44.7969 297.828 44.8906 297.016 45.0156C296.234 45.1094 295.531 45.2344 294.906 45.3906C294.312 45.5469 293.828 45.7031 293.453 45.8594C292.859 46.1094 292.25 46.75 291.625 47.7812C291 48.7812 290.422 50.0156 289.891 51.4844C289.391 52.9531 288.969 54.5938 288.625 56.4062C288.312 58.2188 288.156 60.0469 288.156 61.8906C288.156 64.7031 288.688 67.3281 289.75 69.7656C290.812 72.2031 292.25 74.3281 294.062 76.1406C295.906 77.9531 298.047 79.375 300.484 80.4062C302.922 81.4375 305.5 81.9531 308.219 81.9531C311.156 81.9531 314.094 81.5312 317.031 80.6875C319.969 79.8125 322.797 78.7969 325.516 77.6406ZM377.266 77.2656C374.828 79.2344 372.422 81 370.047 82.5625C367.672 84.125 365.359 85.4375 363.109 86.5C360.891 87.5625 358.75 88.3438 356.688 88.8438C354.656 89.375 352.75 89.5781 350.969 89.4531C349.156 89.3281 347.484 88.8906 345.953 88.1406C344.453 87.3906 343.156 86.2656 342.062 84.7656C340.969 83.2656 340.125 81.3438 339.531 79C338.938 76.6562 338.688 73.8281 338.781 70.5156C338.812 68.7344 338.875 66.625 338.969 64.1875C339.031 62.0938 339.094 59.5 339.156 56.4062C339.219 53.3125 339.281 49.7031 339.344 45.5781C338.688 45.6406 337.875 45.7188 336.906 45.8125C335.969 45.9062 334.938 46.0781 333.812 46.3281C332.719 46.5469 331.578 46.8594 330.391 47.2656C329.203 47.6406 328.031 48.125 326.875 48.7188C327.812 48.125 328.75 47.5156 329.688 46.8906C330.656 46.2656 331.531 45.6875 332.312 45.1562C333.219 44.5625 334.094 43.9688 334.938 43.375C335.781 42.9375 336.531 42.1406 337.188 40.9844C337.75 39.9844 338.266 38.5625 338.734 36.7188C339.203 34.875 339.438 32.3906 339.438 29.2656C341.625 28.1719 343.469 27.1719 344.969 26.2656C346.469 25.3594 347.688 24.5938 348.625 23.9688C349.719 23.2188 350.594 22.5781 351.25 22.0469L351.062 37.7969C351.875 37.8281 352.672 37.8594 353.453 37.8906C354.234 37.8906 354.922 37.8906 355.516 37.8906H357.484C360.172 37.9531 362.719 37.9219 365.125 37.7969C366.156 37.7656 367.203 37.7031 368.266 37.6094C369.359 37.5156 370.406 37.4062 371.406 37.2812C372.406 37.125 373.328 36.9375 374.172 36.7188C375.047 36.5 375.781 36.25 376.375 35.9688C374.688 37.6562 372.828 39.0781 370.797 40.2344C368.797 41.3906 366.703 42.3438 364.516 43.0938C362.328 43.8125 360.078 44.3594 357.766 44.7344C355.484 45.1094 353.219 45.3594 350.969 45.4844C350.906 49.9531 350.859 54.3438 350.828 58.6562C350.797 62.9688 350.781 67.2188 350.781 71.4062C350.812 72.7812 351.156 74.0781 351.812 75.2969C352.469 76.5156 353.375 77.5781 354.531 78.4844C355.719 79.3906 357.109 80.125 358.703 80.6875C360.297 81.2188 362.062 81.4844 364 81.4844C365.969 81.4844 368.078 81.1562 370.328 80.5C372.609 79.8438 374.922 78.7656 377.266 77.2656ZM422.312 69.1094C422.312 71.2656 421.734 73.2812 420.578 75.1562C419.453 77 417.969 78.7031 416.125 80.2656C414.281 81.8281 412.188 83.2031 409.844 84.3906C407.531 85.5781 405.172 86.5781 402.766 87.3906C400.359 88.2031 398.031 88.7969 395.781 89.1719C393.531 89.5469 391.562 89.6719 389.875 89.5469C388.406 89.4844 386.859 89.25 385.234 88.8438C383.641 88.4688 382.219 88 380.969 87.4375C379.75 86.875 378.828 86.2656 378.203 85.6094C377.609 84.9531 377.594 84.3125 378.156 83.6875C378.719 83.0938 379.328 82.5 379.984 81.9062C380.641 81.3125 381.422 80.7031 382.328 80.0781C383.234 79.4219 384.312 78.7344 385.562 78.0156C386.812 77.2969 388.312 76.5 390.062 75.625C389.5 76.5 389.359 77.2656 389.641 77.9219C389.922 78.5781 390.438 79.1719 391.188 79.7031C391.969 80.2031 392.906 80.625 394 80.9688C395.125 81.3125 396.219 81.5938 397.281 81.8125C398.375 82.0312 399.359 82.1875 400.234 82.2812C401.141 82.375 401.781 82.4219 402.156 82.4219C403.281 82.4219 404.391 82.375 405.484 82.2812C406.609 82.1562 407.609 81.9062 408.484 81.5312C409.359 81.1562 410.062 80.6094 410.594 79.8906C411.156 79.1406 411.438 78.125 411.438 76.8438C411.438 75.2812 411 73.9531 410.125 72.8594C409.281 71.7656 408.156 70.8594 406.75 70.1406C405.375 69.3906 403.828 68.7969 402.109 68.3594C400.391 67.9219 398.672 67.5625 396.953 67.2812C395.266 66.9688 393.656 66.7188 392.125 66.5312C390.625 66.3125 389.391 66.0781 388.422 65.8281C386.859 65.4219 385.547 64.8906 384.484 64.2344C383.453 63.5469 382.609 62.7969 381.953 61.9844C381.328 61.1406 380.875 60.25 380.594 59.3125C380.312 58.375 380.172 57.4375 380.172 56.5C380.172 54.4062 380.734 52.4688 381.859 50.6875C382.984 48.9062 384.453 47.2969 386.266 45.8594C388.078 44.4219 390.125 43.1562 392.406 42.0625C394.719 40.9688 397.047 40.0469 399.391 39.2969C401.766 38.5469 404.062 37.9844 406.281 37.6094C408.5 37.2344 410.422 37.0469 412.047 37.0469C413.922 37.0469 415.578 37.1562 417.016 37.375C418.484 37.5625 419.672 37.7969 420.578 38.0781C421.453 38.3594 422 38.7188 422.219 39.1562C422.469 39.5938 422.469 40.0938 422.219 40.6562C422 41.2188 421.562 41.8281 420.906 42.4844C420.25 43.1406 419.469 43.8125 418.562 44.5C417.844 45.0625 417.078 45.5938 416.266 46.0938C415.547 46.5312 414.75 46.9844 413.875 47.4531C413 47.8906 412.094 48.2812 411.156 48.625C411.625 48.0312 411.812 47.5 411.719 47.0312C411.656 46.5625 411.375 46.1406 410.875 45.7656C410.375 45.3906 409.703 45.0781 408.859 44.8281C408.016 44.5469 407.078 44.3281 406.047 44.1719C405.016 43.9844 403.922 43.8594 402.766 43.7969C401.641 43.7031 400.531 43.6562 399.438 43.6562C398.375 43.6562 397.312 43.7031 396.25 43.7969C395.188 43.8594 394.234 44.0625 393.391 44.4062C392.547 44.7188 391.859 45.2188 391.328 45.9062C390.797 46.5938 390.531 47.5312 390.531 48.7188C390.531 49.6875 390.75 50.7031 391.188 51.7656C391.625 52.7969 392.266 53.7812 393.109 54.7188C393.984 55.625 395.062 56.4375 396.344 57.1562C397.625 57.875 399.109 58.3906 400.797 58.7031C402.109 58.9531 403.562 59.1406 405.156 59.2656C406.75 59.3906 408.344 59.5469 409.938 59.7344C411.531 59.9219 413.062 60.1875 414.531 60.5312C416.031 60.875 417.359 61.3906 418.516 62.0781C419.672 62.7656 420.594 63.6719 421.281 64.7969C421.969 65.9219 422.312 67.3594 422.312 69.1094Z" fill="#253976"/>
</svg>
