<svg width="524" height="87" viewBox="0 0 524 87" fill="none" xmlns="http://www.w3.org/2000/svg">
<path d="M13.5625 57.8438C13.1875 61.5938 11.125 63.625 7.375 63.9375C5.625 63.9375 4.09375 63.375 2.78125 62.25C1.53125 61.0625 0.90625 59.5938 0.90625 57.8438V13.5938C0.96875 11.8438 1.625 10.4062 2.875 9.28125C4.125 8.09375 5.625 7.5 7.375 7.5H46.75C52.25 7.6875 56.4062 8.90625 59.2188 11.1562C62.0312 13.3438 64.0625 15.8438 65.3125 18.6562C66.5625 21.4688 67.1875 24.3125 67.1875 27.1875C67.1875 30.1875 66.5625 33.0938 65.3125 35.9062C64.125 38.7188 62.0938 41.25 59.2188 43.5C56.4062 45.6875 52.8125 46.75 48.4375 46.6875H24.8125C23.0625 46.6875 21.5938 46.0625 20.4062 44.8125C19.1562 43.625 18.5312 42.1562 18.5312 40.4062C18.5312 38.6562 19.125 37.1875 20.3125 36C21.5625 34.75 23.0625 34.125 24.8125 34.125H49C50.1875 34.125 51.1562 33.75 51.9062 33C52.7188 32.1875 53.3125 31.2812 53.6875 30.2812C54.0625 29.2188 54.25 28.1562 54.25 27.0938C54.25 26.0938 54.0625 25.0938 53.6875 24.0938C53.3125 23.0312 52.7188 22.125 51.9062 21.375C51.1562 20.5625 50.1875 20.125 49 20.0625H16C14.375 20.125 13.5625 20.9375 13.5625 22.5V57.8438ZM79.0938 32.0625C80.2812 29.0625 82.2812 26.375 85.0938 24C87.9688 21.5625 91.5938 20.3125 95.9688 20.25H131.219C132.969 20.25 134.438 20.875 135.625 22.125C136.875 23.3125 137.5 24.7812 137.5 26.5312C137.5 28.2812 136.875 29.7812 135.625 31.0312C134.438 32.2188 132.969 32.8125 131.219 32.8125H95.5938C94.4062 32.8125 93.375 33.3125 92.5 34.3125C91.625 35.25 90.9375 36.375 90.4375 37.6875C90 39 89.7812 40.25 89.7812 41.4375V57.8438C89.4062 61.5938 87.3438 63.625 83.5938 63.9375C81.8438 63.9375 80.3125 63.375 79 62.25C77.75 61.0625 77.125 59.5938 77.125 57.8438V41.5312H77.2188C77.2188 38.2812 77.8438 35.125 79.0938 32.0625ZM166.188 62.8125C160.688 62.625 156.531 61.3438 153.719 58.9688C150.906 56.5312 148.875 53.8125 147.625 50.8125C146.375 47.75 145.75 44.6562 145.75 41.5312C145.75 38.2812 146.344 35.1562 147.531 32.1562C148.781 29.0938 150.812 26.375 153.625 24C156.5 21.5625 160.125 20.3125 164.5 20.25H194.875C199.25 20.3125 202.844 21.5625 205.656 24C208.531 26.375 210.562 29.0938 211.75 32.1562C213 35.1562 213.625 38.2812 213.625 41.5312C213.625 44.6562 213 47.75 211.75 50.8125C210.5 53.8125 208.469 56.5312 205.656 58.9688C202.844 61.3438 198.688 62.625 193.188 62.8125H166.188ZM164.125 32.8125C162.938 32.8125 161.906 33.3125 161.031 34.3125C160.156 35.25 159.5 36.375 159.062 37.6875C158.688 38.9375 158.5 40.1875 158.5 41.4375C158.5 42.75 158.688 44.0625 159.062 45.375C159.5 46.625 160.156 47.75 161.031 48.75C161.906 49.6875 162.938 50.1875 164.125 50.25H195.25C196.438 50.1875 197.469 49.6875 198.344 48.75C199.219 47.75 199.844 46.625 200.219 45.375C200.656 44.0625 200.875 42.75 200.875 41.4375C200.875 40.1875 200.656 38.9375 200.219 37.6875C199.844 36.375 199.219 35.25 198.344 34.3125C197.469 33.3125 196.438 32.8125 195.25 32.8125H164.125ZM230.875 19.3125C232.562 19.375 234 20 235.188 21.1875C236.375 22.3125 237 23.7188 237.062 25.4062V57.8438C237.062 62.8438 236.375 67.5625 235 72C233.75 75.9375 231.688 79.25 228.812 81.9375C226 84.6875 222.406 86.1875 218.031 86.4375H214.469C212.781 86.375 211.375 85.75 210.25 84.5625C209.062 83.4375 208.438 82.0312 208.375 80.3438C208.375 78.5938 208.969 77.0938 210.156 75.8438C211.281 74.5938 212.719 73.9375 214.469 73.875H214.844C217.219 73.75 219.188 72.8438 220.75 71.1562C222.312 69.4688 223.312 67.5 223.75 65.25C224.188 63 224.406 60.0938 224.406 56.5312V25.4062C224.469 23.6562 225.125 22.2188 226.375 21.0938C227.625 19.9062 229.125 19.3125 230.875 19.3125ZM223 7.125C223 5.375 223.75 3.875 225.25 2.625C226.75 1.375 228.562 0.75 230.688 0.75C232.812 0.75 234.625 1.375 236.125 2.625C237.625 3.875 238.375 5.375 238.375 7.125C238.375 8.9375 237.625 10.4687 236.125 11.7188C234.625 12.9688 232.812 13.5938 230.688 13.5938C228.562 13.5938 226.75 12.9688 225.25 11.7188C223.75 10.4687 223 8.9375 223 7.125ZM267.812 62.8125C262.312 62.625 258.156 61.3438 255.344 58.9688C252.531 56.5312 250.5 53.8125 249.25 50.8125C248 47.75 247.375 44.6562 247.375 41.5312C247.375 38.2812 247.969 35.1562 249.156 32.1562C250.406 29.0938 252.438 26.375 255.25 24C258.125 21.5625 261.75 20.3125 266.125 20.25H301.75C303.5 20.25 304.969 20.8438 306.156 22.0312C307.406 23.1562 308.031 24.5312 308.031 26.1562C308.031 27.8438 307.406 29.2812 306.156 30.4688C304.969 31.5938 303.5 32.1562 301.75 32.1562H266.688C265.312 32.1562 264.094 32.625 263.031 33.5625C262.031 34.5 261.281 35.7188 260.781 37.2188C260.344 38.7188 260.125 40.1875 260.125 41.625C260.125 43.1875 260.344 44.7188 260.781 46.2188C261.281 47.7188 262.031 48.9375 263.031 49.875C264.094 50.75 265.312 51.2188 266.688 51.2812H301.75C303.5 51.2812 304.969 51.8438 306.156 52.9688C307.406 54.0938 308.031 55.4375 308.031 57C308.031 58.625 307.406 60 306.156 61.125C304.969 62.25 303.5 62.8125 301.75 62.8125H267.812ZM306.906 41.3438C306.906 42.5312 306.375 43.5625 305.312 44.4375C304.375 45.25 303.188 45.6562 301.75 45.6562H271.094C269.656 45.6562 268.438 45.25 267.438 44.4375C266.438 43.5625 265.938 42.5312 265.938 41.3438C265.938 40.2188 266.438 39.2188 267.438 38.3438C268.438 37.5312 269.656 37.125 271.094 37.125H301.75C303.188 37.125 304.406 37.5625 305.406 38.4375C306.406 39.25 306.906 40.2188 306.906 41.3438ZM337.844 62.8125C332.344 62.625 328.188 61.3438 325.375 58.9688C322.562 56.5312 320.531 53.8125 319.281 50.8125C318.031 47.75 317.406 44.6562 317.406 41.5312C317.406 38.2812 318 35.1562 319.188 32.1562C320.438 29.0938 322.469 26.375 325.281 24C328.156 21.5625 331.781 20.3125 336.156 20.25H371.781C373.531 20.25 375 20.875 376.188 22.125C377.438 23.3125 378.062 24.7812 378.062 26.5312C378.062 28.2812 377.438 29.7812 376.188 31.0312C375 32.2188 373.531 32.8125 371.781 32.8125H335.781C334.594 32.8125 333.562 33.3125 332.688 34.3125C331.812 35.25 331.156 36.375 330.719 37.6875C330.344 38.9375 330.156 40.1875 330.156 41.4375C330.156 42.75 330.344 44.0625 330.719 45.375C331.156 46.625 331.812 47.75 332.688 48.75C333.562 49.6875 334.594 50.1875 335.781 50.25H371.781C373.531 50.25 375 50.875 376.188 52.125C377.438 53.3125 378.062 54.7812 378.062 56.5312C378.062 58.2812 377.438 59.75 376.188 60.9375C375 62.1875 373.531 62.8125 371.781 62.8125H337.844ZM408.25 6C410 6 411.5 6.59375 412.75 7.78125C414 8.90625 414.656 10.3438 414.719 12.0938V20.25H446.594C448.344 20.25 449.844 20.8438 451.094 22.0312C452.281 23.2812 452.875 24.7812 452.875 26.5312C452.875 28.2812 452.25 29.7812 451 31.0312C449.812 32.2188 448.344 32.8125 446.594 32.8125H414.719V34.6875C414.656 37.25 414.812 39.625 415.188 41.8125C415.625 43.9375 416.625 45.8438 418.188 47.5312C419.75 49.2188 421.719 50.125 424.094 50.25H446.969C448.719 50.3125 450.156 50.9688 451.281 52.2188C452.469 53.4688 453.062 54.9688 453.062 56.7188C453 58.4062 452.375 59.8438 451.188 61.0312C450.062 62.1562 448.656 62.75 446.969 62.8125H420.906C416.531 62.5625 412.906 61.0938 410.031 58.4062C407.219 55.6562 405.188 52.3125 403.938 48.375C402.75 44.4375 402.125 40.25 402.062 35.8125V32.8125H391.281C389.531 32.8125 388.062 32.1875 386.875 30.9375C385.625 29.75 385 28.2812 385 26.5312C385 24.7812 385.594 23.3125 386.781 22.125C388.031 20.875 389.531 20.25 391.281 20.25H402.062V12.0938C402.125 10.4062 402.75 9 403.938 7.875C405.125 6.6875 406.562 6.0625 408.25 6ZM521.594 25.6875C521.594 27.25 520.969 28.5625 519.719 29.625C518.531 30.625 517.062 31.125 515.312 31.125H475.656C474.844 31.125 474.188 31.2812 473.688 31.5938C473.188 31.9062 472.812 32.25 472.562 32.625C472.312 32.9375 472.188 33.2188 472.188 33.4688C472.188 33.7812 472.312 34.125 472.562 34.5C472.812 34.8125 473.188 35.125 473.688 35.4375C474.188 35.6875 474.844 35.8438 475.656 35.9062H506.312C510.25 35.9688 513.5 36.75 516.062 38.25C518.625 39.6875 520.438 41.4062 521.5 43.4062C522.625 45.3438 523.188 47.3125 523.188 49.3125C523.188 51.25 522.625 53.2188 521.5 55.2188C520.375 57.1562 518.531 58.875 515.969 60.375C513.469 61.8125 510.25 62.5312 506.312 62.5312C505.625 62.5938 505.125 62.625 504.812 62.625H468.438C466.688 62.625 465.188 62.125 463.938 61.125C462.75 60.0625 462.156 58.7812 462.156 57.2812C462.156 55.7188 462.781 54.4062 464.031 53.3438C465.219 52.3438 466.688 51.8438 468.438 51.8438H507.062C508 51.9062 508.75 51.7812 509.312 51.4688C509.938 51.1562 510.406 50.8125 510.719 50.4375C511.031 50.0625 511.188 49.6875 511.188 49.3125C511.188 49.125 511.031 48.8125 510.719 48.375C510.406 47.875 509.938 47.5 509.312 47.25C508.75 46.9375 508 46.75 507.062 46.6875H476.312C472.688 46.625 469.688 45.875 467.312 44.4375C464.938 42.9375 463.25 41.2188 462.25 39.2812C461.25 37.3438 460.75 35.4062 460.75 33.4688C460.75 31.5312 461.25 29.625 462.25 27.75C463.312 25.8125 465 24.1562 467.312 22.7812C469.688 21.3438 472.688 20.5625 476.312 20.4375C476.938 20.375 477.406 20.3438 477.719 20.3438H515.312C517.062 20.3438 518.531 20.875 519.719 21.9375C520.969 22.9375 521.594 24.1875 521.594 25.6875Z" fill="#253976"/>
</svg>
